<?xml version="1.0" encoding="UTF-8"?>
<!DOCTYPE svg  PUBLIC '-//W3C//DTD SVG 1.1//EN'  'http://www.w3.org/Graphics/SVG/1.1/DTD/svg11.dtd'>
<svg width=".21333in" height=".21333in" clip-rule="evenodd" fill-rule="evenodd" image-rendering="optimizeQuality" shape-rendering="geometricPrecision" text-rendering="geometricPrecision" version="1.1" viewBox="0 0 213.33 213.33" xml:space="preserve" xmlns="http://www.w3.org/2000/svg">
 <defs>
  <style type="text/css">
   <![CDATA[
    .fil1 {fill:black}
    .fil0 {fill:#00677F}
   ]]>
  </style>
 </defs>
     <path class="fil0" d="m167.42 103.22h0.35 0.13 0.22c6.43-0.11 11.63-2.37 15.47-6.69 8.45-9.52 7.05-25.85 6.89-27.41-0.55-11.7-6.08-17.29-10.65-19.9-3.4-1.95-7.37-3.01-11.8-3.09h-0.15-0.09-0.13c-2.44 0-7.22 0.39-11.8 3.01-4.61 2.61-10.23 8.2-10.78 19.99-0.15 1.56-1.56 17.88 6.89 27.41 3.82 4.32 9.02 6.58 15.45 6.69zm-16.48-33.55c0-0.06 0.02-0.13 0.02-0.17 0.72-15.73 11.89-17.43 16.68-17.43h0.09 0.17c5.93 0.13 16 2.55 16.68 17.43 0 0.06 0 0.13 0.02 0.17 0.02 0.15 1.56 15.07-5.42 22.93-2.76 3.11-6.45 4.65-11.3 4.69h-0.11-0.11c-4.83-0.04-8.54-1.58-11.28-4.69-6.95-7.81-5.46-22.8-5.44-22.93z"/>
     <path class="fil0" d="m212.86 130.3c0-0.21-0.02-0.41-0.02-0.61-0.13-4.35-0.42-14.5-9.94-17.75-0.07-0.02-0.15-0.04-0.22-0.07-9.89-2.52-18.12-8.23-18.21-8.3-1.34-0.94-3.18-0.61-4.12 0.72-0.94 1.34-0.61 3.18 0.72 4.13 0.37 0.26 9.1 6.34 20.03 9.15 5.11 1.82 5.69 7.29 5.84 12.29 0 0.2 0 0.37 0.02 0.55 0.02 1.97-0.11 5.02-0.46 6.78-3.28 1.86-15.4 7.95-33.91 8.88 0.06 0.27 0.1 0.47 0.15 0.58 0.78 1.64 0.99 3.53 0.57 5.3 23.09-1.24 36.74-9.96 37.35-10.34 0.5-0.33 0.92-0.81 1.14-1.38 1.1-2.92 1.07-8.78 1.05-9.92zm-81.33-10.85c0.76-0.81 1.73-1.46 2.97-1.9 10.93-2.81 19.66-8.91 20.03-9.15 1.34-0.94 1.67-2.78 0.72-4.12-0.94-1.34-2.79-1.67-4.13-0.72-0.09 0.06-8.27 5.77-18.21 8.29-0.09 0.02-0.15 0.05-0.22 0.07-3.79 1.3-6.12 3.7-7.56 6.38 0.69-0.06 1.4-0.06 2.18-0.05 1.52 0.02 2.97 0.45 4.2 1.21z"/>
     <path class="fil0" d="m44.76 104.14h0.35 0.13 0.21c6.31-0.11 11.41-2.32 15.18-6.56 8.29-9.35 6.91-25.36 6.76-26.89-0.54-11.48-5.96-16.96-10.44-19.53-3.33-1.91-7.23-2.95-11.58-3.04h-0.15-0.09-0.13c-2.39 0-7.09 0.39-11.58 2.95-4.52 2.56-10.04 8.05-10.57 19.61-0.15 1.53-1.53 17.54 6.76 26.89 3.74 4.24 8.85 6.46 15.15 6.56zm-16.17-32.91c0-0.07 0.02-0.13 0.02-0.17 0.71-15.44 11.67-17.09 16.36-17.09h0.09 0.17c5.81 0.13 15.69 2.5 16.36 17.09 0 0.06 0 0.13 0.02 0.17 0.02 0.15 1.53 14.79-5.32 22.5-2.71 3.06-6.33 4.56-11.09 4.61h-0.11-0.11c-4.74-0.04-8.38-1.55-11.07-4.61-6.83-7.67-5.36-22.37-5.34-22.5z"/>
     <path class="fil0" d="m85.52 116.72c-1.39-1.7-3.31-3.14-5.94-4.04-0.06-0.02-0.15-0.04-0.21-0.06-9.71-2.48-17.78-8.07-17.87-8.14-1.31-0.93-3.12-0.6-4.05 0.71s-0.6 3.12 0.71 4.05c0.37 0.26 8.93 6.22 19.65 8.98 0.41 0.15 0.79 0.31 1.14 0.5 1.76-1.61 4.18-2.37 6.57-2zm-48.63 29.2c-16.09-1.45-26.7-6.77-29.72-8.48-0.35-1.72-0.5-4.72-0.45-6.65 0-0.17 0.02-0.34 0.02-0.54 0.15-4.91 0.71-10.27 5.72-12.06 10.72-2.76 19.29-8.74 19.66-8.98 1.31-0.93 1.63-2.73 0.71-4.05-0.93-1.31-2.73-1.64-4.05-0.71-0.09 0.06-8.12 5.66-17.87 8.13-0.08 0.02-0.15 0.04-0.21 0.07-9.35 3.21-9.63 13.17-9.75 17.42 0 0.19 0 0.37-0.02 0.54v0.07c-0.02 1.12-0.04 6.87 1.1 9.75 0.22 0.56 0.6 1.03 1.12 1.35 0.57 0.38 12.79 8.17 33.57 9.93-0.65-1.88-0.58-3.97 0.17-5.8z"/>
     <path class="fil1" d="m105.15 112.86h0.57 0.21 0.35c10.35-0.18 18.72-3.81 24.91-10.77 13.6-15.33 11.34-41.61 11.09-44.12-0.88-18.83-9.78-27.83-17.13-32.04-5.48-3.15-11.87-4.84-19-4.98h-0.25-0.14-0.21c-3.92 0-11.62 0.63-19 4.84-7.42 4.2-16.46 13.21-17.34 32.18-0.25 2.51-2.51 28.79 11.09 44.12 6.15 6.96 14.52 10.59 24.87 10.77zm-26.53-54.01c0-0.11 0.04-0.21 0.04-0.28 1.17-25.33 19.15-28.05 26.85-28.05h0.14 0.28c9.54 0.21 25.75 4.1 26.85 28.05 0 0.11 0 0.21 0.04 0.28 0.03 0.25 2.51 24.27-8.73 36.91-4.45 5.02-10.38 7.49-18.19 7.56h-0.18-0.18c-7.77-0.07-13.74-2.54-18.16-7.56-11.2-12.57-8.8-36.7-8.76-36.91z"/>
     <path class="fil1" d="m178.3 156.45v-0.11c0-0.28-0.04-0.57-0.04-0.88-0.21-7-0.67-23.35-16-28.58-0.11-0.04-0.25-0.07-0.35-0.11-15.93-4.06-29.18-13.24-29.32-13.35-2.16-1.52-5.12-0.99-6.64 1.17-1.52 2.15-0.99 5.12 1.17 6.64 0.6 0.42 14.66 10.21 32.25 14.73 8.23 2.93 9.15 11.73 9.39 19.78 0 0.32 0 0.6 0.04 0.89 0.04 3.18-0.18 8.09-0.74 10.91-5.72 3.25-28.15 14.48-62.28 14.48-33.98 0-56.55-11.27-62.31-14.52-0.56-2.83-0.81-7.74-0.74-10.91 0-0.28 0.04-0.57 0.04-0.89 0.25-8.05 1.17-16.85 9.39-19.78 17.59-4.52 31.65-14.34 32.25-14.73 2.15-1.52 2.69-4.49 1.17-6.64s-4.49-2.69-6.64-1.17c-0.14 0.11-13.31 9.29-29.32 13.35-0.14 0.04-0.24 0.07-0.35 0.11-15.33 5.26-15.79 21.62-16 28.58 0 0.31 0 0.6-0.04 0.88v0.11c-0.04 1.83-0.07 11.27 1.8 16 0.35 0.92 0.99 1.7 1.83 2.22 1.06 0.71 26.46 16.89 68.95 16.89s67.89-16.21 68.95-16.89c0.81-0.53 1.48-1.31 1.84-2.22 1.77-4.7 1.73-14.13 1.7-15.96z"/>
</svg>