<?xml version="1.0" encoding="UTF-8"?>
<!DOCTYPE svg  PUBLIC '-//W3C//DTD SVG 1.1//EN'  'http://www.w3.org/Graphics/SVG/1.1/DTD/svg11.dtd'>
<svg width=".21333in" height=".21333in" clip-rule="evenodd" fill-rule="evenodd" image-rendering="optimizeQuality" shape-rendering="geometricPrecision" text-rendering="geometricPrecision" version="1.1" viewBox="0 0 213.33 213.33" xml:space="preserve" xmlns="http://www.w3.org/2000/svg">
 <defs>
  <style type="text/css">
   <![CDATA[
    .fil0 {fill:#FF9E1B}
   ]]>
  </style>
 </defs>
  <path class="fil0" d="m75.67 96.57c-3.09-19.3 10.74-35.15 26.24-37.35 18.94-2.7 35.54 11.69 38.07 27.11 7.26 44.37-57.61 52.02-64.31 10.25v-0.01zm37.21 8.2l-6.18-10.57c-3.87 0.96-7.14 0.93-9.8-0.1-2.67-1.03-4.8-2.9-6.39-5.63-1.61-2.76-2.09-5.59-1.43-8.46 0.66-2.88 2.36-5.29 5.11-7.24l-1.45-2.48 3.72-2.13 1.45 2.49c2.91-1.24 5.61-1.56 8.11-0.97 2.49 0.59 4.7 2.03 6.62 4.3l-6.01 4.54c-1.56-1.76-3.38-2.52-5.45-2.28l5.76 9.87c4.75-1.26 8.38-1.44 10.88-0.55 2.51 0.89 4.56 2.7 6.15 5.43 1.78 3.05 2.34 6.14 1.69 9.31-0.66 3.16-2.5 5.94-5.54 8.37l2.75 4.72-3.72 2.12-2.72-4.66c-3.14 1.32-6.15 1.61-9.05 0.86-2.89-0.75-5.56-2.64-7.99-5.64l6.2-4.57c1.06 1.19 2.25 2.06 3.57 2.6 1.32 0.55 2.56 0.77 3.73 0.69l-0.01-0.01zm-15.49-26.52c-0.8 0.93-1.24 1.96-1.35 3.1s0.12 2.2 0.69 3.17c0.52 0.89 1.26 1.57 2.25 2.03 0.98 0.46 2.16 0.61 3.53 0.45l-5.11-8.76-0.01 0.01zm19.45 24.81c1.12-1.01 1.81-2.21 2.07-3.6 0.27-1.4 0.03-2.72-0.71-3.99-0.65-1.12-1.56-1.9-2.72-2.33-1.15-0.43-2.62-0.43-4.43 0.02l5.78 9.9h0.01zm-91.22 40.38l-16.29-39.63c-2.7-6.76-1.34-7.97-8.1-8.23-4.48 6.04 4.61 21.85 7.74 29.46 4.3 10.44 7.98 19.39 12.28 29.7 4.43 10.59 7.29 21.72 17.42 24.52 31.8 8.78 74.48-12.54 99.33-21.85 47.93-17.94 53-6.81 71.91-10.95 1.48-6.91-2.39-14.89-6.49-19.94-44.71-7.8-82.73 21.29-120.73 30.02-23.74 5.45-47.87 8.39-57.07-13.1zm-22.83-76.49c-1.6 8.75 17.42 48.72 22.04 59.85 8.14 19.6 11.31 31.08 56.83 21.99 22.08-4.41 40.56-14.44 60.88-21.85 77.7-28.31 87.72 25.25 48.17-70.04-5.06-12.18-5.61-20.56-18.65-23.37-33.95-7.31-73.26 13.49-100.3 23.42-44.98 16.5-57.42 5.38-68.96 10h-0.01z"/>
</svg>