<?xml version="1.0" encoding="UTF-8"?>
<!DOCTYPE svg  PUBLIC '-//W3C//DTD SVG 1.1//EN'  'http://www.w3.org/Graphics/SVG/1.1/DTD/svg11.dtd'>
<svg width=".21333in" height=".21333in" clip-rule="evenodd" fill-rule="evenodd" image-rendering="optimizeQuality" shape-rendering="geometricPrecision" text-rendering="geometricPrecision" version="1.1" viewBox="0 0 213.33 213.33" xml:space="preserve" xmlns="http://www.w3.org/2000/svg">
 <defs>
  <style type="text/css">
   <![CDATA[
    .fil0 {fill:black}
    .fil1 {fill:#00677F}
   ]]>
  </style>
 </defs>
  <path class="fil0" d="m107.94 120.77h0.66 0.24 0.41c12.03-0.2 21.77-4.44 28.95-12.53 15.81-17.83 13.19-48.38 12.9-51.3-1.03-21.89-11.38-32.36-19.92-37.25-6.37-3.65-13.8-5.63-22.09-5.79h-0.29-0.17-0.24c-4.56 0-13.52 0.74-22.1 5.63-8.63 4.89-19.14 15.36-20.17 37.42-0.29 2.92-2.92 33.47 12.9 51.3 7.15 8.09 16.88 12.32 28.91 12.53zm-30.85-62.8c0-0.12 0.04-0.25 0.04-0.33 1.35-29.45 22.26-32.61 31.21-32.61h0.17 0.33c11.09 0.25 29.94 4.76 31.22 32.61 0 0.12 0 0.24 0.04 0.33 0.04 0.29 2.92 28.22-10.15 42.92-5.17 5.83-12.07 8.7-21.15 8.79h-0.2-0.2c-9.04-0.08-15.98-2.96-21.11-8.79-13.02-14.62-10.22-42.67-10.19-42.92z"/>
  <path class="fil0" d="m193 171.45v-0.12c0-0.33-0.04-0.66-0.04-1.03-0.25-8.13-0.78-27.15-18.61-33.23-0.13-0.04-0.29-0.08-0.41-0.12-18.52-4.72-33.93-15.4-34.09-15.52-2.51-1.77-5.96-1.15-7.72 1.35s-1.15 5.96 1.36 7.72c0.7 0.49 17.04 11.87 37.5 17.13 9.57 3.41 10.64 13.63 10.93 23 0 0.37 0 0.7 0.04 1.02 0.04 3.7-0.2 9.41-0.86 12.69-6.65 3.78-32.74 16.84-72.41 16.84-39.51 0-65.76-13.1-72.45-16.88-0.66-3.29-0.94-9-0.86-12.69 0-0.33 0.04-0.66 0.04-1.03 0.29-9.36 1.35-19.59 10.92-23 20.46-5.26 30.86-13.35 31.56-13.81 0.68-0.48 0.99-0.28 1.38-0.95-1.89 0.52-4.04-0.56-6.28-1.72-2.12-1.11-3.65-2.78-4.35-4.52-5.31 3.3-11.4 6.81-25.26 10.33-0.16 0.04-0.29 0.08-0.41 0.12-17.83 6.12-18.36 25.14-18.61 33.23 0 0.37 0 0.7-0.04 1.03v0.12c-0.04 2.13-0.08 13.1 2.09 18.61 0.41 1.07 1.15 1.97 2.13 2.59 1.23 0.82 30.76 19.63 80.17 19.63s78.94-18.85 80.17-19.63c0.94-0.62 1.72-1.52 2.13-2.59 2.06-5.46 2.01-16.43 1.97-18.57z"/>
  <path class="fil1" d="m48.47 75.2v-17.94c0-3.04 1.59-5.71 3.98-7.24 3.21-27.93 26.96-49.7 55.74-49.7s52.54 21.77 55.75 49.7c2.39 1.54 3.97 4.2 3.97 7.24v17.94c0 4.77-3.86 8.63-8.63 8.63s-8.63-3.87-8.63-8.63v-3.77l-0.06 0.31c0-0.99 0.01-1.94 0.07-2.38l0.12-3.23c0.57-2.21 0.06-5.6 0.33-6.92 0.34-1.67 0.38-1.31 0.38-3.15 0-0.91-0.07-1.82 0.11-2.71v0.02c1.26-2.48 3.67-4.25 6.54-4.62-3.73-24.26-24.69-42.91-49.96-42.91-25.02 0-45.8 18.28-49.85 42.17 0.26 0.02 0.51 0.02 0.76 0.11 0.63 0.23 1.08 0.68 1.39 1.2 1.87 0.8 3.36 2.25 4.28 4.05l0.03-0.27 1.01 2.82 0.16 4.81 0.15 1.9c0.02 1.18 0.44 2.6 0.25 3.24-0.32 1.02-0.3 2.01-0.51 3.03-0.26 1.3-0.25 3.02-0.1 4.47v1.84c0 3.87-2.57 7.1-6.07 8.2 3.43 11.69 7.19 27.04 17.72 33.67 1.94-0.64 4.39-0.52 6.78 0.72 3.82 1.98 5.77 5.85 4.32 8.61-1.44 2.76-5.7 3.38-9.55 1.39-2.81-1.46-4.58-3.92-4.77-6.22-12.06-7.71-16.74-24.76-20.27-38.37-3.17-1.27-5.43-4.36-5.43-8z"/>
</svg>