<?xml version="1.0" encoding="UTF-8"?>
<!DOCTYPE svg  PUBLIC '-//W3C//DTD SVG 1.1//EN'  'http://www.w3.org/Graphics/SVG/1.1/DTD/svg11.dtd'>
<svg width=".21333in" height=".21333in" clip-rule="evenodd" fill-rule="evenodd" image-rendering="optimizeQuality" shape-rendering="geometricPrecision" text-rendering="geometricPrecision" version="1.1" viewBox="0 0 213.33 213.33" xml:space="preserve" xmlns="http://www.w3.org/2000/svg">
 <defs>
  <style type="text/css">
   <![CDATA[
    .fil0 {fill:#FF9E1B}
   ]]>
  </style>
 </defs>
   <path class="fil0" d="m101.22 93.76h-38.16v87.57h38.16c2.43 0 4.4-1.96 4.4-4.38v-78.81c0-2.42-1.97-4.38-4.4-4.38zm-39.61-0.38v-25.89c0-2.42-1.97-4.38-4.4-4.38h-13.2v-17.51c0-2.42-1.97-4.38-4.4-4.38h-4.4v-8.76h-8.8v8.76h-4.4c-2.43 0-4.4 1.96-4.4 4.38v17.51h-13.2c-2.43 0-4.4 1.96-4.4 4.38v109.46c0 2.42 1.97 4.38 4.4 4.38h57.21v-87.95zm21.37 44.17h8.8v-8.76h-8.8v8.76zm-15.21 0h8.8v-8.76h-8.8v8.76zm15.21-17.52h8.8v-8.76h-8.8v8.76zm-15.21 0h8.8v-8.76h-8.8v8.76zm-32.57-30.65h8.8v-8.76h-8.8v8.76zm-17.61 0h8.8v-8.76h-8.8v8.76zm0 52.54h8.8v-8.76h-8.8v8.76zm17.61-17.52h8.8v-8.76h-8.8v8.76zm-17.61 0h8.8v-8.76h-8.8v8.76zm17.61-17.51h8.8v-8.76h-8.8v8.76zm-17.61 0h8.8v-8.76h-8.8v8.76zm8.8-56.92h8.8v13.13h-8.8v-13.13z"/>
   <path class="fil0" d="m138.51 32v6.57c0 3.63-2.95 6.57-6.6 6.57-8.51 0-15.41 6.86-15.41 15.32v6.57h8.8v-6.57c0-3.63 2.96-6.57 6.6-6.57 8.5 0 15.4-6.86 15.4-15.32v-6.57h-8.8z"/>
   <path class="fil0" d="m211.8 129.38l-30.81-26.27c-1.85-1.57-4.62-1.36-6.2 0.47-0.69 0.8-1.06 1.81-1.06 2.85v9.24l-14.74-12.57c-1.85-1.57-4.63-1.36-6.21 0.47-0.68 0.8-1.06 1.81-1.06 2.85v21.89h-8.8v-43.79h4.4v-8.76h-3.18c1.56-2.7 4.45-4.37 7.58-4.38 12.15-0.02 21.99-9.81 22-21.89v-8.76h-8.8v8.76c0 7.26-5.91 13.13-13.2 13.13-8 0.03-14.98 5.43-16.98 13.14h-22.63v8.76h4.4v43.79h-4.4c-2.43 0-4.4 1.96-4.4 4.38v43.79c0 2.42 1.97 4.38 4.4 4.38h96.82c2.43 0 4.4-1.96 4.4-4.38v-43.79c0-1.28-0.56-2.49-1.54-3.32zm-68.88 25.22h8.8v-8.76h-8.8v8.76zm-17.6 0h8.8v-8.76h-8.8v8.76zm61.61-8.76h8.8v-8.76h-8.8v8.76zm-17.61 0h8.8v-8.76h-8.8v8.76zm17.61 17.52h8.8v-8.76h-8.8v8.76zm-17.61 0h8.8v-8.76h-8.8v8.76zm-44.01-78.81h8.8v43.79h-8.8v-43.79z"/>
</svg>