<?xml version="1.0" encoding="UTF-8"?>
<!DOCTYPE svg  PUBLIC '-//W3C//DTD SVG 1.1//EN'  'http://www.w3.org/Graphics/SVG/1.1/DTD/svg11.dtd'>
<svg width=".21333in" height=".21333in" clip-rule="evenodd" fill-rule="evenodd" image-rendering="optimizeQuality" shape-rendering="geometricPrecision" text-rendering="geometricPrecision" version="1.1" viewBox="0 0 213.33 213.33" xml:space="preserve" xmlns="http://www.w3.org/2000/svg">
 <defs>
  <style type="text/css">
   <![CDATA[
    .fil0 {fill:black}
    .fil1 {fill:#00677F}
   ]]>
  </style>
 </defs>
     <path class="fil0" d="m139.47 111.04h0.57 0.21 0.36c10.39-0.18 18.8-3.83 25-10.81 13.65-15.39 11.39-41.78 11.14-44.3-0.89-18.9-9.82-27.94-17.2-32.17-5.5-3.16-11.92-4.86-19.08-5h-0.25-0.14-0.21c-3.94 0-11.67 0.64-19.08 4.86-7.45 4.22-16.53 13.26-17.41 32.31-0.25 2.52-2.52 28.91 11.14 44.3 6.17 6.98 14.57 10.64 24.96 10.81zm-26.63-54.22c0-0.11 0.04-0.21 0.04-0.28 1.17-25.43 19.22-28.16 26.95-28.16h0.14 0.28c9.58 0.21 25.85 4.11 26.96 28.16 0 0.11 0 0.21 0.04 0.28 0.04 0.25 2.52 24.36-8.76 37.06-4.47 5.04-10.43 7.52-18.27 7.59h-0.18-0.18c-7.8-0.07-13.8-2.56-18.23-7.59-11.24-12.63-8.83-36.85-8.8-37.06z"/>
     <path class="fil0" d="m212.92 154.8c0-0.33-0.04-0.66-0.04-0.99-0.21-7.02-0.67-23.44-16.07-28.69-0.11-0.04-0.25-0.07-0.35-0.11-15.99-4.08-29.29-13.3-29.43-13.41-2.17-1.52-5.15-0.99-6.67 1.17-1.52 2.17-0.99 5.14 1.17 6.67 0.6 0.43 14.72 10.25 32.38 14.79 8.26 2.94 9.19 11.78 9.43 19.86 0 0.32 0 0.6 0.04 0.89 0.04 3.19-0.18 8.12-0.74 10.96-5.75 3.26-28.27 14.54-62.53 14.54-28.19 0-48.56-7.73-58.05-12.25-0.15 0.4-0.3 0.78-0.41 1.22-0.81 3.15-3.48 5.5-6.69 5.93 8.84 4.65 31.74 14.64 65.19 14.64 42.66 0 68.16-16.28 69.22-16.95 0.81-0.53 1.49-1.31 1.85-2.24 1.77-4.72 1.74-14.19 1.7-16.03zm-116.24-23.97c12.51-4.85 21.5-11.12 21.98-11.43 2.16-1.53 2.69-4.5 1.17-6.67-1.52-2.16-4.5-2.69-6.67-1.17-0.1 0.07-6.85 4.78-16.52 8.95 0.63 0.77 1.12 1.67 1.44 2.7 0.84 2.72 0.28 5.46-1.4 7.61z"/>
  <path class="fil1" d="m81.72 165.21c0-5.48-3.75-6.25-10.03-9.96-2.23-1.32-3.98-2.24-6.22-3.56-10.94-6.43-4.59-1.59-13.07-1.59-6.41 0-5.05-3.32-8.35-1.29l-14.94 8.65c-5.44 3.21-6.03 2.85-6.03 8.19 0 5.56 16.69 13.78 26.66 13.78 8.05 0 14.3-0.44 21.48-4.3 3.06-1.64 10.51-5.95 10.51-9.93zm-81.75-29.92v5.63c0.51 9.91 3.73 19.68 9.52 27.67 5.39 7.44 11.8 12.93 20.24 17.07 9.54 4.69 15.78 4.88 26.22 4.88 9.8 0 20.31-4.73 27.87-10.34 3.74-2.78 6.87-5.73 9.65-9.46 3.19-4.28 4.75-6.27 6.98-11.69 2.67-6.52 4.38-13.17 4.38-20.95 0-13.55-6.04-27.6-15.21-36.77-1.35-1.35-2.24-1.84-3.56-3.1-3.01-2.87-8.15-5.98-11.89-7.66-6.3-2.82-12.52-4.15-20.91-4.88-5.68-0.49-16.56 2.11-21.73 4.44-5.82 2.61-11.17 6-15.44 10.32-4.85 4.89-7.64 8.3-10.93 14.84-3.11 6.19-4.82 13.04-5.18 19.99zm52.87-1.62c-7.87 0-6.2 9.33-0.89 9.33 7.32 0 6.13-9.33 0.89-9.33zm11.11 5.78c3.72 1.97 7.14 3.88 10.8 6.08 8.06 4.85 18.97 13.13 18.97-6.97 0-13.45-6.82-26.65-17.86-34.13-3.69-2.5-15.16-9.82-18.11-1.84-0.9 2.43-0.46 21.83-0.46 25.3 2.07 0.48 3.89 2.43 4.88 4 1.46 2.33 1.78 3.74 1.78 7.55zm-16.44-32.88c0-5.07-2.3-7.56-6.67-7.56-3.56 0-9.07 3.38-11.46 4.98-10.15 6.78-18.3 18.78-18.3 32.35 0 9.55 0.71 19.97 12.69 12.69l16.63-9.58c0-4.37 1.69-8.48 4.89-10.66 3.56-2.42 2.01-4.22 1.86-9.38l0.36-5.29c0-1.87-0.32-2.47-0.36-3.59-0.04-1.36 0.36-1.94 0.36-3.96z"/>
</svg>