<?xml version="1.0" encoding="UTF-8"?>
<!DOCTYPE svg  PUBLIC '-//W3C//DTD SVG 1.1//EN'  'http://www.w3.org/Graphics/SVG/1.1/DTD/svg11.dtd'>
<svg width=".21333in" height=".21333in" clip-rule="evenodd" fill-rule="evenodd" image-rendering="optimizeQuality" shape-rendering="geometricPrecision" text-rendering="geometricPrecision" version="1.1" viewBox="0 0 213.33 213.33" xml:space="preserve" xmlns="http://www.w3.org/2000/svg">
 <defs>
  <style type="text/css">
   <![CDATA[
    .fil1 {fill:black}
    .fil0 {fill:#00677F}
   ]]>
  </style>
 </defs>
  <path class="fil0" d="m108.04 101.37c0-1.37-0.92-2.6-2.29-2.89l-50.21-24.35c-0.81-0.39-1.78-0.39-2.59 0l-50.7 24.57c-1.04 0.5-1.68 1.55-1.68 2.69v61.67c0 1.13 0.64 2.17 1.68 2.67l50.7 24.57c0.02 0 0.02 0 0.05 0.02 0.07 0.02 0.15 0.05 0.22 0.1 0.02 0 0.05 0.02 0.1 0.02 0.2 0.07 0.39 0.15 0.61 0.15 0.1 0 0.22 0.02 0.32 0.02s0.22 0 0.32-0.02c0.23 0 0.4-0.07 0.62-0.15 0.02 0 0.05-0.02 0.1-0.02 0.07-0.02 0.15-0.05 0.22-0.1 0.02 0 0.02 0 0.05-0.02l23.14-11.22c-1.68-1.15-2.96-2.87-3.47-4.94l-18.04 8.76v-55.05l21.02-10.2v14.4c0 1.63 1.33 2.96 2.96 2.96s2.96-1.33 2.96-2.96v-17.28l18-8.73v19.73c1.85-0.98 3.99-1.2 5.96-0.73v-23.61c-0.05-0.02-0.05-0.05-0.05-0.07zm-53.81-21.3l43.98 21.32-16.19 7.86-43.98-21.32 16.19-7.86zm0 42.65l-43.98-21.32 21-10.18 43.98 21.32-21 10.18zm-47.75-16.57l44.79 21.72v55.05l-44.79-21.72v-55.05z"/>
     <path class="fil1" d="m139.1 112.34h0.57 0.21 0.36c10.39-0.18 18.79-3.83 25-10.81 13.65-15.39 11.38-41.77 11.13-44.29-0.89-18.9-9.82-27.94-17.2-32.16-5.5-3.16-11.91-4.86-19.08-5h-0.25-0.14-0.21c-3.93 0-11.67 0.64-19.07 4.86-7.44 4.22-16.52 13.26-17.41 32.3-0.25 2.52-2.52 28.9 11.13 44.29 6.17 6.98 14.57 10.64 24.96 10.81zm-26.63-54.21c0-0.11 0.04-0.21 0.04-0.29 1.17-25.42 19.22-28.15 26.94-28.15h0.14 0.28c9.57 0.21 25.85 4.11 26.95 28.15 0 0.11 0 0.22 0.04 0.29 0.04 0.25 2.52 24.36-8.76 37.05-4.47 5.04-10.43 7.52-18.26 7.59h-0.18-0.18c-7.8-0.07-13.79-2.55-18.22-7.59-11.24-12.62-8.83-36.84-8.79-37.05z"/>
     <path class="fil1" d="m212.54 156.09v-0.11c0-0.28-0.04-0.57-0.04-0.89-0.21-7.02-0.67-23.44-16.06-28.69-0.11-0.04-0.25-0.07-0.35-0.11-15.99-4.07-29.29-13.3-29.43-13.4-2.16-1.52-5.14-0.99-6.67 1.17-1.52 2.17-0.99 5.14 1.17 6.67 0.6 0.43 14.72 10.25 32.37 14.79 8.26 2.94 9.18 11.77 9.43 19.86 0 0.32 0 0.6 0.04 0.89 0.04 3.19-0.18 8.12-0.74 10.96-5.74 3.26-28.26 14.54-62.51 14.54-34.11 0-56.76-11.31-62.54-14.57-0.57-2.84-0.82-7.77-0.75-10.96 0-0.28 0.04-0.57 0.04-0.89 0.25-8.09 1.17-16.91 9.43-19.86 17.66-4.54 31.77-14.39 32.37-14.79 2.16-1.52 2.69-4.5 1.17-6.67-1.52-2.16-4.5-2.69-6.67-1.17-0.14 0.11-13.37 9.33-29.43 13.4-0.14 0.04-0.25 0.07-0.35 0.11-15.39 5.28-15.85 21.7-16.06 28.69 0 0.32 0 0.61-0.04 0.89v0.11c-0.04 1.84-0.07 11.31 1.81 16.06 0.35 0.93 0.99 1.7 1.84 2.24 1.07 0.71 26.56 16.95 69.21 16.95 42.66 0 68.15-16.28 69.22-16.95 0.81-0.53 1.49-1.31 1.84-2.24 1.77-4.71 1.74-14.18 1.7-16.02z"/>
</svg>