<?xml version="1.0" encoding="UTF-8"?>
<!DOCTYPE svg  PUBLIC '-//W3C//DTD SVG 1.1//EN'  'http://www.w3.org/Graphics/SVG/1.1/DTD/svg11.dtd'>
<svg width=".21333in" height=".21333in" clip-rule="evenodd" fill-rule="evenodd" image-rendering="optimizeQuality" shape-rendering="geometricPrecision" text-rendering="geometricPrecision" version="1.1" viewBox="0 0 213.33 213.33" xml:space="preserve" xmlns="http://www.w3.org/2000/svg">
 <defs>
  <style type="text/css">
   <![CDATA[
    .fil1 {fill:black}
    .fil0 {fill:#00677F}
   ]]>
  </style>
 </defs>
  <path class="fil0" d="m99.7 105.67h-38.71v-25.81c0-2.37-1.93-4.3-4.3-4.3h-51.62c-2.37 0-4.3 1.93-4.3 4.3v107.54c0 2.37 1.93 4.3 4.3 4.3h94.63c2.38 0 4.3-1.93 4.3-4.3v-7.67c-1.59-0.24-3.16-0.85-4.35-1.74-0.8-0.6-0.27-0.32-1.23-0.9-0.66-0.4-1.47-1.24-2.07-1.46-0.33-0.12-0.65-0.26-0.95-0.43v7.9h-34.41v-68.82h34.41v10.82c1.89-0.45 2.27 0.09 3.43-0.49l3.34-1.34c0.44-0.11 1.1-0.19 1.83-0.24v-13.06c0-2.37-1.93-4.3-4.3-4.3zm-64.52-4.3h8.61v-8.6h-8.61v8.6zm-17.2 0h8.6v-8.6h-8.6v8.6zm48.91 47.31h8.61v-8.6h-8.61v8.6zm24.33-22.16v-3.65h-8.6v7.44c1.3-1.26 2.94-2.24 4.74-2.61l3.02-0.86 0.84-0.33zm-24.33 4.96h8.61v-8.6h-8.61v8.6zm-48.91 21.51h8.6v-8.6h-8.6v8.6zm17.2-17.2h8.61v-8.6h-8.61v8.6zm-17.2 0h8.6v-8.6h-8.6v8.6zm17.2-17.21h8.61v-8.6h-8.61v8.6zm-17.2 0h8.6v-8.6h-8.6v8.6zm34.41 64.52h-43.02v-98.93h43.02v98.93z"/>
     <path class="fil1" d="m139.93 112.5h0.57 0.21 0.35c10.4-0.18 18.81-3.83 25.02-10.82 13.67-15.4 11.39-41.81 11.15-44.33-0.89-18.91-9.83-27.96-17.21-32.19-5.5-3.16-11.93-4.86-19.09-5h-0.25-0.14-0.21c-3.94 0-11.67 0.64-19.09 4.86-7.45 4.22-16.54 13.27-17.43 32.33-0.25 2.52-2.52 28.93 11.14 44.33 6.18 6.99 14.59 10.65 24.98 10.82zm-26.65-54.26c0-0.11 0.04-0.21 0.04-0.28 1.17-25.44 19.23-28.18 26.97-28.18h0.14 0.28c9.58 0.22 25.87 4.12 26.97 28.18 0 0.11 0 0.21 0.04 0.28 0.04 0.25 2.52 24.38-8.77 37.08-4.47 5.04-10.43 7.52-18.28 7.59h-0.18-0.18c-7.81-0.07-13.8-2.56-18.24-7.59-11.25-12.63-8.83-36.87-8.8-37.08z"/>
     <path class="fil1" d="m213.43 156.29v-0.11c0-0.28-0.04-0.57-0.04-0.89-0.21-7.03-0.67-23.46-16.07-28.71-0.11-0.04-0.25-0.07-0.36-0.11-16-4.08-29.31-13.31-29.45-13.41-2.17-1.52-5.15-0.99-6.67 1.17-1.52 2.17-0.99 5.15 1.17 6.67 0.6 0.43 14.73 10.26 32.4 14.8 8.27 2.94 9.19 11.78 9.44 19.87 0 0.32 0 0.6 0.04 0.89 0.04 3.2-0.18 8.13-0.74 10.97-5.75 3.26-28.28 14.55-62.57 14.55-34.14 0-56.81-11.32-62.6-14.58-0.57-2.84-0.82-7.77-0.75-10.97 0-0.28 0.04-0.57 0.04-0.89 0.25-8.09 1.17-16.93 9.44-19.87 17.67-4.54 31.8-14.41 32.4-14.8 2.17-1.52 2.7-4.51 1.17-6.67-1.52-2.17-4.5-2.7-6.67-1.17-0.14 0.11-13.38 9.33-29.46 13.41-0.14 0.04-0.25 0.07-0.35 0.11-15.4 5.29-15.86 21.72-16.07 28.71 0 0.32 0 0.6-0.04 0.89v0.11c-0.04 1.85-0.07 11.32 1.81 16.08 0.36 0.92 1 1.7 1.85 2.23 1.07 0.71 26.58 16.96 69.27 16.96s68.21-16.29 69.28-16.96c0.81-0.53 1.49-1.31 1.84-2.23 1.78-4.72 1.74-14.2 1.7-16.04z"/>
</svg>