<?xml version="1.0" encoding="UTF-8"?>
<!DOCTYPE svg  PUBLIC '-//W3C//DTD SVG 1.1//EN'  'http://www.w3.org/Graphics/SVG/1.1/DTD/svg11.dtd'>
<svg width=".21333in" height=".21333in" clip-rule="evenodd" fill-rule="evenodd" image-rendering="optimizeQuality" shape-rendering="geometricPrecision" text-rendering="geometricPrecision" version="1.1" viewBox="0 0 213.33 213.33" xml:space="preserve" xmlns="http://www.w3.org/2000/svg">
 <defs>
  <style type="text/css">
   <![CDATA[
    .fil0 {fill:#FF9E1B}
   ]]>
  </style>
 </defs>
   <path class="fil0" d="m136.04 79.96h-51.29v133.28h51.29c3.27 0 5.92-2.98 5.92-6.67v-119.95c0-3.68-2.65-6.67-5.92-6.67zm-53.24-0.57v-39.41c0-3.68-2.65-6.66-5.91-6.66h-17.74v-26.66c0-3.68-2.65-6.66-5.92-6.66h-23.66c-3.26 0-5.91 2.98-5.91 6.66v26.66h-17.74c-3.27 0-5.92 2.98-5.92 6.66v166.6c0 3.68 2.65 6.67 5.92 6.67h76.89v-133.86zm28.73 67.22h11.83v-13.33h-11.83v13.33zm-20.45 0h11.83v-13.33h-11.83v13.33zm20.45-26.66h11.83v-13.33h-11.83v13.33zm-20.45 0h11.83v-13.33h-11.83v13.33zm-43.77-46.65h11.83v-13.33h-11.83v13.33zm-23.66 0h11.83v-13.33h-11.83v13.33zm0 79.97h11.83v-13.33h-11.83v13.33zm23.66-26.66h11.83v-13.33h-11.83v13.33zm-23.66 0h11.83v-13.33h-11.83v13.33zm23.66-26.66h11.83v-13.33h-11.83v13.33zm-23.66 0h11.83v-13.33h-11.83v13.33zm11.83-86.63h11.83v19.99h-11.83v-19.99z"/>
   <path class="fil0" d="m213.33 192.09v5.63c0 1.03-0.74 1.85-1.64 1.85h-13.27c-0.95-7.37-6.55-13.06-13.32-13.06s-12.37 5.69-13.32 13.06h-26.6v-9.34h20.68v-53.09c0-2.05 1.47-3.71 3.28-3.71h15.48c4.35 0 8.43 2.45 10.87 6.54l9.98 16.73c1.46 2.45 2.25 5.35 2.25 8.31v25.22h3.99c0.9 0 1.64 0.83 1.64 1.86zm-68.15-70.18h11.07c2.71 0 4.92 2.49 4.92 5.57v55.35c0 1.03-0.74 1.86-1.64 1.86h-14.35v-62.77zm50.12 79.87c0 6.38-4.57 11.55-10.2 11.55s-10.2-5.17-10.2-11.55 4.57-11.55 10.2-11.55 10.2 5.17 10.2 11.55zm-5.1 0c0-3.19-2.28-5.78-5.1-5.78s-5.1 2.59-5.1 5.78 2.28 5.78 5.1 5.78c2.81 0 5.1-2.59 5.1-5.78zm6.5-44.66l-7.98-12.83c-0.31-0.49-0.81-0.79-1.34-0.79h-12.44c-0.91 0-1.64 0.83-1.64 1.85v12.84c0 1.02 0.74 1.85 1.64 1.85h20.42c1.33 0 2.1-1.69 1.34-2.93z"/>
</svg>