<?xml version="1.0" encoding="UTF-8"?>
<!DOCTYPE svg  PUBLIC '-//W3C//DTD SVG 1.1//EN'  'http://www.w3.org/Graphics/SVG/1.1/DTD/svg11.dtd'>
<svg width=".21333in" height=".21333in" clip-rule="evenodd" fill-rule="evenodd" image-rendering="optimizeQuality" shape-rendering="geometricPrecision" text-rendering="geometricPrecision" version="1.1" viewBox="0 0 213.33 213.33" xml:space="preserve" xmlns="http://www.w3.org/2000/svg">
 <defs>
  <style type="text/css">
   <![CDATA[
    .fil1 {fill:black}
    .fil0 {fill:#00677F}
   ]]>
  </style>
 </defs>
   <path class="fil0" d="m106.11 118.82c28.59 0 51.85-23.26 51.85-51.85s-23.26-51.85-51.85-51.85-51.85 23.27-51.85 51.85c0 28.59 23.26 51.85 51.85 51.85zm0-88.89c20.42 0 37.04 16.61 37.04 37.04 0 20.42-16.61 37.04-37.04 37.04-20.42 0-37.04-16.61-37.04-37.04s16.62-37.04 37.04-37.04z"/>
   <path class="fil0" d="m105.48 193.59l54.33-78.46c20.37-27.17 17.43-71.82-6.31-95.55-12.83-12.83-29.88-19.89-48.02-19.89s-35.19 7.06-48.02 19.89c-23.74 23.73-26.69 68.39-6.39 95.44l54.41 78.57zm-43.01-169.01c11.49-11.49 26.76-17.81 43.01-17.81 16.24 0 31.52 6.33 43.01 17.81 21.43 21.42 24.06 61.75 5.57 86.4l-48.58 70.17-48.66-70.27c-18.41-24.55-15.77-64.87 5.65-86.3z"/>
   <path class="fil1" d="m149.02 151.98c-1.95-0.24-3.7 1.16-3.93 3.1-0.22 1.94 1.16 3.7 3.1 3.93 37.24 4.38 57.07 16.2 57.07 23.04 0 9.61-37.72 23.02-99.15 23.02s-99.15-13.41-99.15-23.02c0-6.85 19.83-18.66 57.07-23.04 1.94-0.23 3.33-1.99 3.1-3.93s-1.98-3.35-3.93-3.1c-37.29 4.39-63.33 16.76-63.33 30.08 0 14.96 36.49 30.1 106.24 30.1 69.74 0 106.24-15.14 106.24-30.1 0-13.32-26.04-25.69-63.33-30.08z"/>
</svg>