<?xml version="1.0" encoding="UTF-8"?>
<!DOCTYPE svg  PUBLIC '-//W3C//DTD SVG 1.1//EN'  'http://www.w3.org/Graphics/SVG/1.1/DTD/svg11.dtd'>
<svg width=".21333in" height=".21333in" clip-rule="evenodd" fill-rule="evenodd" image-rendering="optimizeQuality" shape-rendering="geometricPrecision" text-rendering="geometricPrecision" version="1.1" viewBox="0 0 213.33 213.33" xml:space="preserve" xmlns="http://www.w3.org/2000/svg">
 <defs>
  <style type="text/css">
   <![CDATA[
    .fil0 {fill:#FF9E1B}
   ]]>
  </style>
 </defs>
  <path class="fil0" d="m93.84 88.89c0.47-1 1.04-2.18 1.72-3.3 0.28-0.46 0.6-0.94 0.93-1.42l-0.03-0.03c-0.34 0.41-0.7 0.86-1.04 1.32-0.72 0.95-1.39 2.02-2.14 3.36-1 1.81-1.78 3.81-2.27 5.84l1.05 0.18c0.31-2.07 0.92-4.11 1.77-5.96l0.01 0.02zm-13.07 31.95c-1.5-5.73-2.02-11.17-1.67-16.14 0.39-5.57 1.84-10.62 4.19-14.59 1.58-2.67 3.06-4.67 4.67-6.31 1.93-1.95 3.84-3.55 5.87-4.87 0.85-0.56 2.3-1.61 3.83-2.52v-41.95h-34.59v38.7h-5.97l0.04-41.17h-27.72v41.17h-1.71v-14.34h-27.72v122.51h81.29s8.56-9.59 7.56-27.08c-0.86-14.91-5.39-23.14-8.06-33.41h-0.01zm-61.5-7.05h-11.06v-8.35h11.06v8.35zm0-13.12h-11.06v-8.35h11.06v8.35zm0-13.11h-11.06v-8.35h11.06v8.35zm0-13.12h-11.06v-8.35h11.06v8.35zm18.36-35.17h11.06v8.35h-11.06v-8.35zm0 13.11h11.06v8.35h-11.06v-8.35zm0 13.12h11.06v7.66h-11.06v-7.66zm17.72 49.65h-14.48v-10.93h14.48v10.93zm0-21.85h-14.48v-10.93h14.48v10.93zm17.78-47.14h14.48v10.93h-14.48v-10.93zm0 21.86h14.48v10.7c-0.09 0.07-0.17 0.15-0.26 0.22h-14.22v-10.93l0.01 0.01zm132.85-4.27v-10.46h-22.07v-16.18h-28.84v6.99h-32.56v25.36h-7.39c-9.12 4.84-14.2 11.6-15.74 15.14-1.25 2.86-1.89 5.66-1.9 8.33-0.03 5.37 3.52 11.19 10.55 17.29l0.04 0.04c8.23 7.12 28.72 26.11 38.8 53.19 2.69 7.23 4.16 17.88 4.16 17.88h62.31v-117.59h-7.36v0.01zm-58.78 21.97c-0.09 0.07-0.17 0.15-0.26 0.22h-14.23v-10.93h14.48v10.71h0.01zm0-21.64h-14.48v-10.93h14.48v10.93zm27.44 27.42h-11.07v-8.35h11.07v8.35zm0-13.12h-11.07v-8.35h11.07v8.35zm0-13.11h-11.07v-8.35h11.07v8.35zm0-13.12h-11.07v-8.35h11.07v8.35zm24.72 57.28h-11.07v-8.35h11.07v8.35zm0-13.11h-11.07v-8.35h11.07v8.35zm0-13.12h-11.07v-8.35h11.07v8.35zm0-13.12h-11.07v-8.35h11.07v8.35zm-86.1 88.63c0.62 3.51 0.99 7.24 1.1 11.11l8.16-0.52c-0.49-4.24-1.26-8.32-2.29-12.17l-6.96 1.57-0.01 0.01zm-21.61-48.57c1.11 3.94 3.04 7.65 5.04 11.11l2.81-1.95c-2.02-2.89-4.18-6.21-5.56-9.88l-2.3 0.72h0.01zm17.18 21.51l-4.07 2.46c0.15 0.29 0.31 0.57 0.46 0.85 0.69 1.3 1.28 2.5 1.82 3.67 0.8 1.74 1.57 3.61 2.41 5.82l5.38-2.16c-2.02-4.17-3.94-7.59-5.99-10.65l-0.01 0.01z"/>
</svg>