<?xml version="1.0" encoding="UTF-8"?>
<!DOCTYPE svg  PUBLIC '-//W3C//DTD SVG 1.1//EN'  'http://www.w3.org/Graphics/SVG/1.1/DTD/svg11.dtd'>
<svg width=".21333in" height=".21333in" clip-rule="evenodd" fill-rule="evenodd" image-rendering="optimizeQuality" shape-rendering="geometricPrecision" text-rendering="geometricPrecision" version="1.1" viewBox="0 0 213.33 213.33" xml:space="preserve" xmlns="http://www.w3.org/2000/svg">
 <defs>
  <style type="text/css">
   <![CDATA[
    .fil0 {fill:#FF9E1B}
   ]]>
  </style>
 </defs>
  <path class="fil0" d="m203.93 96.83c5.19 0 9.41 4.22 9.41 9.41s-4.22 9.41-9.41 9.41c-3.94 0-7.32-2.44-8.72-5.88h-70.15v8.23h12.07c0.94 0 1.83 0.37 2.49 1.03l7.65 7.65c1.08-0.44 2.26-0.68 3.5-0.68 5.19 0 9.41 4.22 9.41 9.41s-4.22 9.41-9.41 9.41-9.41-4.22-9.41-9.41c0-1.36 0.3-2.66 0.82-3.83l-6.52-6.51h-10.6v10.6l6.52 6.52c1.17-0.52 2.46-0.82 3.83-0.82 5.19 0 9.41 4.22 9.41 9.41s-4.22 9.41-9.41 9.41-9.41-4.22-9.41-9.41c0-1.24 0.25-2.42 0.68-3.5l-7.64-7.65c-0.67-0.66-1.04-1.56-1.04-2.5v-12.06h-8.23v70.14c3.44 1.4 5.88 4.78 5.88 8.72 0 5.19-4.22 9.41-9.41 9.41s-9.41-4.22-9.41-9.41c0-3.94 2.44-7.32 5.88-8.72v-70.14h-8.23v30.98c0 0.94-0.37 1.83-1.03 2.5l-7.14 7.13c0.65 1.27 1.01 2.7 1.01 4.21 0 5.19-4.22 9.41-9.41 9.41s-9.41-4.22-9.41-9.41 4.22-9.41 9.41-9.41c1.08 0 2.12 0.19 3.08 0.53l6.43-6.43v-29.52h-9.76l-6.52 6.52c0.52 1.17 0.82 2.47 0.82 3.83 0 5.19-4.22 9.41-9.41 9.41s-9.41-4.22-9.41-9.41 4.22-9.41 9.41-9.41c1.24 0 2.42 0.24 3.5 0.68l7.65-7.65c0.66-0.66 1.56-1.03 2.5-1.03h11.22v-8.23h-69.31c-1.4 3.44-4.78 5.88-8.71 5.88-5.19 0-9.41-4.22-9.41-9.41s4.22-9.41 9.41-9.41c3.94 0 7.31 2.44 8.71 5.88h69.31v-8.23h-30.14c-0.94 0-1.83-0.37-2.5-1.04l-7.13-7.13c-1.27 0.64-2.7 1-4.22 1-5.19 0-9.41-4.22-9.41-9.41 0-5.18 4.22-9.41 9.41-9.41s9.41 4.22 9.41 9.41c0 1.08-0.19 2.12-0.53 3.09l6.43 6.43h28.68v-28.68l-6.43-6.43c-0.96 0.33-2 0.53-3.08 0.53-5.19 0-9.41-4.22-9.41-9.41s4.22-9.41 9.41-9.41 9.41 4.22 9.41 9.41c0 1.52-0.37 2.94-1.01 4.22l7.14 7.14c0.66 0.66 1.03 1.56 1.03 2.49v30.14h8.23v-69.31c-3.44-1.4-5.88-4.77-5.88-8.72 0-5.19 4.22-9.41 9.41-9.41s9.41 4.22 9.41 9.41c0 3.94-2.44 7.31-5.88 8.72v69.31h8.23v-11.22c0-0.94 0.37-1.83 1.04-2.5l7.64-7.65c-0.43-1.08-0.68-2.26-0.68-3.5 0-5.19 4.22-9.41 9.41-9.41s9.41 4.22 9.41 9.41-4.22 9.41-9.41 9.41c-1.37 0-2.66-0.3-3.83-0.82l-6.52 6.52v9.76h29.52l6.43-6.43c-0.33-0.97-0.53-2-0.53-3.09 0-5.18 4.22-9.41 9.41-9.41s9.41 4.22 9.41 9.41-4.22 9.41-9.41 9.41c-1.52 0-2.95-0.37-4.22-1l-7.13 7.13c-0.66 0.66-1.56 1.04-2.49 1.04h-30.98v8.23h70.15c1.4-3.44 4.78-5.88 8.72-5.88zm2.35 9.41c0-1.3-1.06-2.35-2.35-2.35-1.3 0-2.35 1.05-2.35 2.35s1.05 2.35 2.35 2.35 2.35-1.06 2.35-2.35zm-34.04-28.33c0-1.29-1.06-2.35-2.35-2.35-1.3 0-2.35 1.06-2.35 2.35 0 1.3 1.05 2.35 2.35 2.35s2.35-1.06 2.35-2.35zm-19.11 57.5c0-1.3-1.06-2.35-2.35-2.35-1.3 0-2.35 1.06-2.35 2.35 0 1.3 1.05 2.35 2.35 2.35s2.35-1.06 2.35-2.35zm-15.36-72.85c0-1.3-1.05-2.35-2.35-2.35s-2.35 1.06-2.35 2.35c0 1.3 1.06 2.35 2.35 2.35 1.3 0 2.35-1.06 2.35-2.35zm0 88.2c0-1.3-1.05-2.35-2.35-2.35s-2.35 1.06-2.35 2.35c0 1.3 1.06 2.35 2.35 2.35 1.3 0 2.35-1.06 2.35-2.35zm-19.76-32.76v-8.23h-8.23v8.23h8.23zm0-15.29v-8.23h-8.23v8.23h8.23zm-9.41-93.31c0-1.3-1.06-2.35-2.35-2.35-1.3 0-2.35 1.05-2.35 2.35s1.06 2.35 2.35 2.35c1.3 0 2.35-1.06 2.35-2.35zm0 194.52c0-1.3-1.06-2.35-2.35-2.35-1.3 0-2.35 1.06-2.35 2.35 0 1.3 1.06 2.35 2.35 2.35 1.3 0 2.35-1.06 2.35-2.35zm-5.87-85.92v-8.23h-8.23v8.23h8.23zm0-15.29v-8.23h-8.23v8.23h8.23zm-22.44-59.28c0-1.3-1.06-2.35-2.35-2.35-1.3 0-2.35 1.06-2.35 2.35 0 1.3 1.05 2.35 2.35 2.35s2.35-1.06 2.35-2.35zm0 126.44c0-1.3-1.06-2.35-2.35-2.35-1.3 0-2.35 1.06-2.35 2.35 0 1.3 1.05 2.35 2.35 2.35s2.35-1.06 2.35-2.35zm-15.35-34.47c0-1.3-1.06-2.35-2.35-2.35-1.3 0-2.35 1.06-2.35 2.35 0 1.3 1.05 2.35 2.35 2.35s2.35-1.06 2.35-2.35zm-19.12-57.5c0-1.29-1.06-2.35-2.35-2.35-1.3 0-2.35 1.06-2.35 2.35 0 1.3 1.05 2.35 2.35 2.35s2.35-1.06 2.35-2.35zm-34.04 28.33c0-1.3-1.06-2.35-2.35-2.35-1.3 0-2.35 1.05-2.35 2.35s1.05 2.35 2.35 2.35 2.35-1.06 2.35-2.35z"/>
</svg>