<?xml version="1.0" encoding="UTF-8"?>
<!DOCTYPE svg  PUBLIC '-//W3C//DTD SVG 1.1//EN'  'http://www.w3.org/Graphics/SVG/1.1/DTD/svg11.dtd'>
<svg width=".21333in" height=".21333in" clip-rule="evenodd" fill-rule="evenodd" image-rendering="optimizeQuality" shape-rendering="geometricPrecision" text-rendering="geometricPrecision" version="1.1" viewBox="0 0 213.33 213.33" xml:space="preserve" xmlns="http://www.w3.org/2000/svg">
 <defs>
  <style type="text/css">
   <![CDATA[
    .fil0 {fill:#FF9E1B}
   ]]>
  </style>
 </defs>
   <path class="fil0" d="m104.13 213.28c0.25 0.07 4.82 0.07 5.07 0 0.54-0.34 4.3-0.74 7.15-1.89 5.35-2.17 9.29-5.38 12.42-9.98 1.59-2.32 0.61-1.72 2.21-2.24 7.05-2.31 10.7-10.19 8.2-17.19-0.44-1.22-0.92-2.04-1.54-2.94-1.24-1.79-1.54-1.5-2.07-2.5 1.39-2.02 4.31-3.73 4.41-9.81 0.09-5.81-3.03-8.01-4.15-10.07 1.15-0.63 2.74-2.68 3.5-4.38 1-2.24 1.07-4.07 1.48-6.63 1.75-10.91 5.26-19.71 11.13-28.73 3.33-5.11 6.79-8.13 10.39-13.7 2.12-3.29 3.94-6.48 5.6-10.39 3.37-7.95 5.49-17.3 5.37-26.94-0.21-16.57-5.91-30.07-15.7-42.19-0.39-0.48-0.64-0.64-1.02-1.11-1.49-1.87-0.8-0.87-1.97-2.07-0.67-0.69-1.27-1.24-1.92-1.93-6.84-7.29-18.7-13.51-28.02-16.11-2.2-0.61-4.32-1.09-6.59-1.49-1.6-0.28-6.21-0.59-7.19-0.98h-8.44c-0.95 0.38-5.45 0.69-7 0.95-2.24 0.38-4.41 0.87-6.61 1.47-8.63 2.39-19.64 7.98-25.88 13.98-1.5 1.45-4.78 4.3-6.02 5.93l-1.87 2.19c-9.3 10.67-14.85 26.89-15.04 41.37-0.19 15.69 5.04 29.92 14.17 41.81l3.68 4.42c15.26 19.57 13.52 34.11 16.05 40.02 0.76 1.79 2.39 3.87 3.56 4.52-1.33 2.3-4.22 4.34-4.15 10.08 0.08 5.72 2.69 7.43 4.42 9.81-0.26 0.52-0.04 0.22-0.48 0.69-1.39 1.44-2.23 2.27-3.13 4.76-2.56 7.08 1.29 14.95 8.2 17.16 1.57 0.5 0.7 0.07 2.2 2.26 4.69 6.83 10.46 10.11 18.51 11.54l1.06 0.33zm17.24-13.44l-29.39 0.04c0.78 1.62 3.9 3.59 6.05 4.72 6.13 3.25 15.09 2.28 20.49-1.92 0.89-0.69 2.38-1.84 2.86-2.83zm-36.09-19.8c-4.16 0.93-7 5.81-4.12 10.28 2.52 3.9 8.12 2.89 13.78 2.91 5.54 0.02 11.09 0.01 16.63 0.02 2.63 0 14.92 0.15 16.53-0.18 4.17-0.85 6.93-5.93 4.07-10.26-2.59-3.93-8.33-2.87-13.78-2.89-4.39-0.02-31.09-0.32-33.11 0.13zm0.12-19.98c-7.82 1.54-6.7 12.82 1.04 13.19 2.65 0.12 5.6 0.01 8.28 0.01 2.65 0 31.43 0.23 33.25-0.14 4.81-0.99 6.69-6.52 4.25-10.2-2.7-4.06-7.95-3.01-13.62-3.01-2.8 0-31.21-0.24-33.21 0.15zm31.69-7.4c-0.26-2.74-0.06-27.56-0.06-31.76 0-3.04-0.4-3 0.98-4.35l7.97-8.02c1.26-1.32 1-2.17 1-4.25-0.02-8.55-0.22-18.15 0.02-26.45 2.97 1.02 4.27 2.09 8.28 1.62 8.21-0.97 13.9-9.5 10.91-17.76-3.95-10.95-18.81-11.67-24.24-1.8l-7.58-7.53c-2.95-3.04-5.72-7.28-8.78-5.81-2.14 1.02-1.91 3-1.91 5.71 0 5.64 0.31 18.48-0.05 22.57-1.18-0.96-2.28-2.29-3.39-3.43-1.39-1.43-5.97-5.33-6.56-6.67-0.92-2.09-1.18-8.43-8.94-11.09-11.44-3.93-22.06 8.31-15.97 19.17 1.49 2.66 3.96 4.91 7.38 6.06 4.94 1.66 7.46 0.16 10.89-1.04 0.19 8.54 0.04 17.96 0.02 26.67-0.01 2.22-0.21 2.8 1.1 4.15l7.98 8.02c0.67 0.65 0.86 0.6 0.88 1.89 0.07 4.08 0.14 31.5-0.07 34.13h6.78c-0.23-3.35-0.03-7.45-0.03-10.87v-22.18c0-5.31 0.19-4.89-3.09-7.86l-1.35-1.43c-0.35-0.39-1.04-0.91-1.43-1.35-0.63-0.72-0.56-0.68-1.39-1.38-0.6-0.51-0.73-0.76-1.38-1.39-1.75-1.67-1.33-1.09-1.33-4.29v-27.39c1.56 0.89 5.83 5.78 7.22 7.23 1.93 2.01 5.59 6.96 8.53 3.64 1.52-1.7 0.87-10.35 0.87-13.34 0-4.73 0.03-9.46 0-14.19 1.07 0.5 2.97 2.78 3.81 3.64 1.25 1.28 2.32 2.4 3.57 3.68 0.65 0.66 1.13 1.18 1.8 1.83 1 1 0.86 0.82 0.84 2.69v21.54c0 1.84 0.33 13.06-0.32 13.87-0.83 1.02-2.63 2.56-3.66 3.59-3.65 3.62-6.06 4.84-6.04 8.54 0.01 2.35 0 4.69 0 7.04 0 5.84 0.29 23.73-0.02 28.35h6.78zm-37.73-93.01c-8.83 1.47-6.57 14.57 2.14 13.11 8.54-1.43 6.45-14.54-2.14-13.11zm53.14 0.04c-8.94 1.79-6.04 14.71 2.47 13.04 3.19-0.63 6.01-3.8 5.22-7.83-0.63-3.15-3.78-5.98-7.69-5.2z"/>
   <path class="fil0" d="m93.37 74.95v27.39c0 3.2-0.42 2.61 1.33 4.29 0.65 0.63 0.78 0.89 1.38 1.39 0.83 0.7 0.76 0.66 1.39 1.38 0.38 0.44 1.07 0.95 1.43 1.34l1.34 1.43c3.28 2.98 3.09 2.55 3.09 7.86v22.18c0 3.45-0.2 7.59 0.04 10.96l6.58 0.04c0.33-4.41 0.04-22.59 0.04-28.48v-7.04c-0.01-3.7 2.39-4.92 6.04-8.54 1.03-1.03 2.84-2.57 3.66-3.59 0.66-0.81 0.33-12.04 0.33-13.87v-21.54c0.02-1.87 0.16-1.7-0.84-2.69-0.66-0.65-1.15-1.17-1.79-1.83-1.25-1.28-2.32-2.4-3.57-3.68-0.84-0.86-2.74-3.14-3.81-3.64 0.03 4.73 0 9.47 0 14.2 0 2.99 0.65 11.63-0.87 13.33-2.94 3.31-6.6-1.63-8.53-3.64-1.4-1.46-5.67-6.34-7.22-7.23z"/>
   <path class="fil0" d="m39.15 101.87c-1.41 0.61-2.74 1.44-4.07 2.22-6.05 3.57-14.07 7.87-19.6 11.31-3.42 2.13-0.8 7.41 2.96 5.96l23.56-13.55c3.33-2.11 0.98-7.6-2.85-5.95z"/>
   <path class="fil0" d="m171.9 101.83c-1.44 0.51-2.65 1.99-2.07 4.07 0.43 1.55 1.96 2.19 3.27 2.93 2.59 1.48 5.26 2.98 7.84 4.53l11.75 6.8c1.2 0.69 2.78 1.92 4.65 1.22 1.34-0.51 2.46-2.1 1.98-4-0.44-1.75-1.72-2.09-3.21-2.98l-15.7-9.03c-1.33-0.77-2.52-1.5-3.89-2.28-1.22-0.69-2.75-1.91-4.6-1.25z"/>
   <path class="fil0" d="m16.21 11.83c-1.47 0.49-2.62 1.91-2.23 3.89 0.35 1.81 1.66 2.24 3.13 3.06l15.69 9.05c1.36 0.78 2.56 1.52 3.89 2.28 1.2 0.69 2.8 1.94 4.65 1.39 1.43-0.43 2.63-2.01 2.21-3.95-0.36-1.67-1.89-2.28-3.19-3.04-2.61-1.51-5.21-2.98-7.84-4.52l-11.76-6.78c-1.35-0.76-2.7-1.98-4.55-1.37z"/>
   <path class="fil0" d="m0.06 65.72v1.8c0.81 1.15 0.82 2.01 2.62 2.33 1.14 0.2 3.57 0.07 4.84 0.07h19.61c1.65 0 6.33 0.69 6.23-3.41-0.04-1.46-1.01-2.52-2.01-2.94-1.33-0.56-21.17-0.26-24.05-0.26-5.91 0-5.28-0.39-7.25 2.4z"/>
   <path class="fil0" d="m195.1 11.81c-1.01 0.34-3.09 1.67-4.03 2.22l-11.74 6.8c-2.6 1.53-5.28 2.99-7.85 4.52-3.48 2.06-1.31 7.48 2.67 6.09l23.58-13.52c3.59-2.16 1.01-7.31-2.61-6.11z"/>
   <path class="fil0" d="m213.27 67.53v-1.8c-1.97-2.8-1.35-2.41-7.25-2.41h-19.4c-2.06 0-6.56-0.7-6.65 3.2-0.11 4.1 4.54 3.41 6.22 3.41l24.46-0.06c1.78-0.33 1.79-1.17 2.61-2.34z"/>
   <path class="fil0" d="m79.02 60.07c-8.83 1.47-6.57 14.57 2.14 13.11 8.54-1.43 6.45-14.54-2.14-13.11z"/>
   <path class="fil0" d="m132.16 60.11c-8.95 1.79-6.05 14.71 2.47 13.04 3.19-0.63 6.01-3.8 5.21-7.83-0.62-3.15-3.78-5.98-7.69-5.2z"/>
</svg>