<?xml version="1.0" encoding="utf-8"?>
<!-- Generator: Adobe Illustrator 21.0.0, SVG Export Plug-In . SVG Version: 6.00 Build 0)  -->
<svg version="1.1" id="Layer_1" xmlns="http://www.w3.org/2000/svg" xmlns:xlink="http://www.w3.org/1999/xlink" x="0px" y="0px"
	 viewBox="0 0 141.7 141.7" style="enable-background:new 0 0 141.7 141.7;" xml:space="preserve">
<style type="text/css">
	.st0{fill:#04A554;}
	.st1{fill:#018C3E;}
	.st2{fill:#E73834;}
	.st3{fill:#C51226;}
	.st4{fill:#FE9601;}
	.st5{fill:#F37B21;}
	.st6{fill:#FFCA04;}
	.st7{fill:#FFAB06;}
	.st8{fill:#0291E8;}
	.st9{fill:#0476C0;}
	.st10{fill:#A8538A;}
	.st11{fill:#843D6B;}
</style>
<g>
	<path class="st0" d="M71.4,68.3L45.1,22.2c0,0-1.6-3.2,1.9-3.2h11.1L72,43.6c0,0,1.6,1.9,3-1.2l7.4,12.8l-7.5,13
		C74.8,68.3,73.1,71.2,71.4,68.3z"/>
	<path class="st1" d="M74.1,43.9l14.3-25h11.7c0,0,3.2-0.1,1.1,3.1L81.3,57L74.1,43.9z"/>
</g>
<path class="st2" d="M74.9,81.7l26.3,46.1c0,0,1.6,3.2-1.9,3.2H88.2l-13.9-24.7c0,0-1.6-1.9-3,1.2L64,94.7l7.5-13
	C71.5,81.7,73.2,78.8,74.9,81.7z"/>
<path class="st3" d="M72.3,106l-14.3,25H46.2c0,0-3.2,0.1-1.1-3.1L65,93L72.3,106z"/>
<path class="st4" d="M80.1,77.9l53.1-0.1c0,0,3.6,0.2,1.9,3.2l-5.5,9.6l-28.3-0.1c0,0-2.5,0.5-0.4,3.2l-14.8,0l-7.6-13
	C78.4,80.9,76.7,78,80.1,77.9z"/>
<path class="st5" d="M99.9,92.3l14.6,24.8l-5.8,10.2c0,0-1.5,2.8-3.2-0.6L85,92.1L99.9,92.3z"/>
<path class="st6" d="M78.3,70.3l27-45.7c0,0,2-3,3.7,0l5.5,9.6L100,58.6c0,0-0.9,2.4,2.5,2L95,73.3l-15-0.1
	C79.9,73.3,76.6,73.2,78.3,70.3z"/>
<path class="st7" d="M100.7,60.6l28.8,0.1l5.8,10.2c0,0,1.6,2.7-2.1,2.5l-40.2,0L100.7,60.6z"/>
<path class="st8" d="M65.9,73.3l-53.1-0.2c0,0-3.6-0.2-1.9-3.2l5.5-9.6l28.3,0.3c0,0,2.5-0.5,0.4-3.2l14.8,0l7.5,13
	C67.6,70.4,69.3,73.3,65.9,73.3z"/>
<path class="st9" d="M46.1,58.9L31.6,34l5.8-10.1c0,0,1.5-2.8,3.2,0.6L61,59.2L46.1,58.9z"/>
<path class="st10" d="M67.5,79.6l-26.9,45.7c0,0-2,3-3.7,0l-5.5-9.6l14.5-24.3c0,0,0.9-2.4-2.5-2l7.5-12.8l15,0.1
	C65.8,76.7,69.2,76.7,67.5,79.6z"/>
<path class="st11" d="M45.1,89.4l-28.8,0l-5.8-10.2c0,0-1.6-2.7,2.1-2.5l40.2-0.1L45.1,89.4z"/>
</svg>
