<?xml version="1.0" encoding="utf-8"?>
<!-- Generator: Adobe Illustrator 19.0.0, SVG Export Plug-In . SVG Version: 6.00 Build 0)  -->
<svg version="1.1" id="Layer_1" xmlns="http://www.w3.org/2000/svg"  x="0px" y="0px"
	 viewBox="-220 312 170 170" style="enable-background:new -220 312 170 170;" xml:space="preserve">
<style type="text/css">
	.st0{fill:#FFFFFF;}
</style>
<path class="st0" d="M-66.9,444.1c-2.6,5.9-5.6,11.3-9.1,16.3c-4.8,6.8-8.7,11.5-11.7,14.1c-4.7,4.3-9.7,6.5-15,6.6
	c-3.8,0-8.5-1.1-13.9-3.3c-5.4-2.2-10.4-3.3-14.9-3.3c-4.8,0-9.9,1.1-15.4,3.3c-5.5,2.2-9.9,3.4-13.3,3.5c-5.1,0.2-10.2-2-15.4-6.8
	c-3.3-2.8-7.3-7.7-12.2-14.6c-5.2-7.4-9.5-15.9-12.9-25.7c-3.6-10.5-5.4-20.7-5.4-30.6c0-11.3,2.4-21.1,7.3-29.2
	c3.8-6.6,9-11.7,15.4-15.5s13.3-5.7,20.8-5.9c4.1,0,9.4,1.3,16.1,3.7c6.6,2.5,10.9,3.7,12.7,3.7c1.4,0,6.1-1.5,14.1-4.4
	c7.6-2.7,14-3.9,19.2-3.4c14.2,1.1,24.9,6.7,31.9,16.8c-12.7,7.7-19,18.5-18.8,32.3c0.1,10.8,4,19.7,11.7,26.8
	c3.5,3.3,7.4,5.9,11.7,7.7C-64.9,439-65.9,441.6-66.9,444.1L-66.9,444.1z M-99.5,316c0,8.4-3.1,16.3-9.2,23.6
	c-7.4,8.7-16.4,13.7-26.1,12.9c-0.1-1-0.2-2.1-0.2-3.2c0-8.1,3.5-16.8,9.8-23.9c3.1-3.6,7.1-6.6,11.9-9c4.8-2.3,9.4-3.6,13.6-3.9
	C-99.5,313.8-99.5,314.9-99.5,316L-99.5,316z"/>
</svg>
