<?xml version="1.0" encoding="utf-8"?>
<!-- Generator: Adobe Illustrator 19.0.0, SVG Export Plug-In . SVG Version: 6.00 Build 0)  -->
<svg version="1.1" id="Layer_1" xmlns="http://www.w3.org/2000/svg" xmlns:xlink="http://www.w3.org/1999/xlink" x="0px" y="0px"
	 viewBox="-220 312 170 170" style="enable-background:new -220 312 170 170;" xml:space="preserve">
<style type="text/css">
	.st0{fill:#FFFFFF;}
</style>
<path class="st0" d="M-92.4,422.9l24.3-13.5l8.1-4.4c0.4-0.2,0.9-0.4,1.3-0.7l0.2-0.1v0c2.7-1.7,4.4-4.1,4.4-6.8V397v-0.5
	c0-2.7-1.7-5-4.4-6.8v0l-0.2-0.1c-0.4-0.2-0.8-0.5-1.3-0.7l-8.1-4.4l-23-12.7l0,0l-26.2,26.4L-92.4,422.9z"/>
<path class="st0" d="M-119.8,400.3l-81.3,81.5c0.3,0,0.5,0,0.8,0l0,0c1.7,0,3.5-0.4,5.1-1.2L-94.9,425L-119.8,400.3z"/>
<path class="st0" d="M-93.6,369.7L-93.6,369.7l-101.7-56.4c-0.2-0.1-0.3-0.2-0.5-0.2l-1.6-0.6c-1-0.3-2-0.4-3-0.4l0,0
	c-1.1,0-2.2,0.2-3.3,0.5l83.8,83.6L-93.6,369.7z"/>
<path class="st0" d="M-206.1,314.6C-206.1,314.6-206.1,314.6-206.1,314.6c-4.3,1.4-7.3,5.4-7.3,10V397v72.3c0,5.6,4.3,10.1,9.7,10.5
	l81.3-81.5L-206.1,314.6z"/>
</svg>