<?xml version="1.0" encoding="UTF-8"?>
<!DOCTYPE svg PUBLIC "-//W3C//DTD SVG 1.1//EN" "http://www.w3.org/Graphics/SVG/1.1/DTD/svg11.dtd">
<!-- Creator: CorelDRAW 2018 (64-Bit) -->
<svg xmlns="http://www.w3.org/2000/svg" xml:space="preserve" width="10.3933in" height="4.27999in" version="1.1" style="shape-rendering:geometricPrecision; text-rendering:geometricPrecision; image-rendering:optimizeQuality; fill-rule:evenodd; clip-rule:evenodd"
viewBox="0 0 10393.33 4279.99"
 xmlns:xlink="http://www.w3.org/1999/xlink">
 <defs>
  <style type="text/css">
   <![CDATA[
    .fil1 {fill:#FA9E0D}
    .fil0 {fill:#00697A}
   ]]>
  </style>
 </defs>
 <g id="Layer_x0020_1">
  <metadata id="CorelCorpID_0Corel-Layer"/>
  <g id="Layout.cdr">
   <path class="fil0" d="M2138.02 -12.46c-4.97,0 -9.91,0.15 -14.87,0.19 -4.96,-0.04 -9.9,-0.19 -14.87,-0.19 -1064.08,0 -1751.57,744.17 -1751.57,1808.25 0,1385.7 1764.51,2410.55 1766.44,2411.67 1.93,-1.13 1766.45,-1025.97 1766.45,-2411.67 0,-1064.08 -687.49,-1808.25 -1751.57,-1808.25zm182.68 1621.74l-372.29 210.96 0 82.33 372.29 -210.91 0 -82.39zm1177.28 198.84c0,759.3 -615.54,1374.84 -1374.84,1374.84 -759.29,0 -1374.82,-615.54 -1374.82,-1374.84 0,-759.29 615.54,-1374.83 1374.82,-1374.83 759.3,0 1374.84,615.54 1374.84,1374.83zm-1367.2 -929.42c114.55,0 207.42,94.06 207.42,210.08 0,116.02 -92.87,210.08 -207.42,210.08 -114.55,0 -207.42,-94.06 -207.42,-210.08 0,-116.02 92.87,-210.08 207.42,-210.08zm-106.7 525.61l220.7 0c41.69,0 75.8,34.1 75.8,75.79l0 129.14 259.64 -145.73 0 80.3 -259.64 148.06 0 971.59c0,41.69 -34.11,75.79 -75.8,75.79l-220.7 0c-41.69,0 -75.8,-34.11 -75.8,-75.79l0 -761.06 -289.26 164.96 0 -84.43 289.26 -162.36 0 -340.46c0,-41.69 34.11,-75.79 75.8,-75.79zm111.84 -1120.5c-4.27,0 -8.52,0.13 -12.79,0.15 -4.26,-0.03 -8.5,-0.15 -12.78,-0.15 -914.67,0 -1505.63,639.68 -1505.63,1554.35 0,1191.14 1516.75,2072.09 1518.41,2073.05 1.67,-0.96 1518.42,-881.91 1518.42,-2073.05 0,-914.67 -590.96,-1554.35 -1505.63,-1554.35z"/>
   <path class="fil1" d="M9423.17 2248.47l0.61 1390.98c-2.83,164.9 -119.72,221.86 -272.28,241.03l-0.2 -1391.33c15.53,-203.13 147.08,-211.01 271.87,-240.68z"/>
   <path class="fil1" d="M8739.83 2112.72l1126.85 0.61c164.9,-2.83 221.86,-119.72 241.03,-272.28l-1127.2 -0.2c-203.13,15.53 -211,147.08 -240.68,271.87z"/>
   <path class="fil1" d="M8307.61 2520.04l400.21 -0.41c153.53,-4.36 235.17,145.77 238.16,272.17l-574.43 1.93c-98.34,-4.4 -149.62,124 6.04,153.98 771.52,15.84 816.33,849.29 285.87,933.71l-856.11 -4.4c-258.85,-14.99 -330.7,-162.97 -344.81,-336.71l-2.13 -756.05c139.57,20.06 267.25,65.18 271.88,240.68l1.3 379.73c1.35,52.83 -16.32,194.09 127.87,201.37l697.69 2.23c247.39,-0.65 221.2,-398.82 -44.9,-402.04 -810.99,-36.04 -460.22,-670.28 -206.64,-686.19z"/>
   <ellipse class="fil1" cx="5020.04" cy="2695.49" rx="180.77" ry="180.76"/>
   <ellipse class="fil1" cx="5981.85" cy="3701.23" rx="180.77" ry="180.76"/>
   <ellipse class="fil1" cx="6776.78" cy="3701.23" rx="180.77" ry="180.76"/>
   <ellipse class="fil1" cx="6355.97" cy="3701.23" rx="180.77" ry="180.76"/>
   <ellipse class="fil1" cx="7146.96" cy="3701.23" rx="180.77" ry="180.76"/>
   <ellipse class="fil1" cx="6957.35" cy="4021.33" rx="180.77" ry="180.76"/>
   <path class="fil1" d="M4267.68 3607.43c20.1,139.35 65.33,266.69 240.6,271.31l86.88 0.22c2.83,0.52 5.66,1.04 8.53,1.54l921.81 -1.85c183.95,-13.88 223.7,-126.89 236.4,-269.22 20.89,-234.09 -46.87,-272.94 125.65,-274.88l282.27 0.88 593.23 0.43 227.15 -0.3c195.44,2.37 317.78,-109.48 337.39,-292.68l-0.2 -522.06c-282.47,57.47 -273.97,118.04 -273.61,435.63 0.54,109.21 -0.26,110.13 -118.01,109.82l-268.42 -0.28c-113.04,0.74 -116.19,1.08 -116.45,-116.46l0.39 -432.69c-322.01,33.28 -272.36,322.78 -271.2,437.04 1.16,114.26 -1.08,113.48 -127.21,112.28l-276.1 0.17c-109.67,-0.7 -113.83,-0.49 -113.94,-112.48l0.99 -434.16c-145.65,17.07 -271.94,83.07 -271.89,241.87l-8.6 612.71c4.82,123.96 -37.89,211.87 -170.7,229.96l-622.15 -0.87c-101.01,0.58 -154.83,-28.35 -164.09,-151.27l5.29 -686.55c-2.39,-174.57 -121.67,-223.17 -273.59,-248.78l0.54 1000.41c0.02,31.2 2.92,61.53 9.04,90.25z"/>
   <g>
    <path class="fil0" d="M5579.59 368.06c417.98,0 756.81,338.84 756.81,756.82 0,417.98 -338.84,756.81 -756.81,756.81 -141.71,0 -274.31,-38.98 -387.7,-106.76l0 619.42c0,25.87 -21.17,47.05 -47.05,47.05l-274.35 0c-25.87,0 -47.05,-21.17 -47.05,-47.05l0 -1237.54 0.05 0c-0.44,-10.59 -0.72,-21.22 -0.72,-31.93 0,-417.98 338.84,-756.82 756.82,-756.82zm2.37 358.72c219.3,0 397.08,177.78 397.08,397.07 0,219.3 -177.78,397.08 -397.08,397.08 -219.3,0 -397.07,-177.78 -397.07,-397.08 0,-219.3 177.78,-397.07 397.07,-397.07z"/>
    <rect class="fil0" x="4261.24" y="624.49" width="368.45" height="1284.59" rx="47.05" ry="47.05"/>
    <rect class="fil0" x="6544.12" y="622" width="368.45" height="1284.59" rx="47.05" ry="47.05"/>
    <path class="fil0" d="M7871.02 445.22c338.13,0 615.09,261.79 639.31,593.74l0.79 12.39c0.63,11.56 0.96,23.2 0.96,34.92 0,11.72 -0.33,23.36 -0.96,34.92l0 748.31c0,25.88 -21.17,47.05 -47.05,47.05l-274.35 0c-25.87,0 -47.05,-21.17 -47.05,-47.05l0 -202.46 -0.61 0.29 0 -567.49c0.2,-4.29 0.31,-8.6 0.31,-12.94 0,-4.34 -0.11,-8.65 -0.31,-12.94 0,-140.68 -132.21,-257.79 -270.41,-257.79 -140.22,0 -255.54,106.6 -269.35,243.18l-0.31 4.05 -1.87 603.99 -0.44 -0.2 0 192.37c0,25.87 -21.17,47.04 -47.05,47.04l-274.35 0c-25.87,0 -47.04,-21.17 -47.04,-47.04l0 -733.56c-0.81,-13.14 -1.26,-26.37 -1.26,-39.71 0,-354.04 287.01,-641.05 641.05,-641.05z"/>
    <circle class="fil0" cx="4433.03" cy="242.83" r="253.93"/>
    <circle class="fil0" cx="6713.42" cy="252.79" r="253.93"/>
    <rect class="fil1" x="4257.5" y="2007.9" width="484.21" height="104.56"/>
    <rect class="fil1" x="5309.32" y="2017.85" width="3201.51" height="99.58"/>
   </g>
  </g>
 </g>
</svg>
