<?xml version="1.0" encoding="UTF-8"?>
<!DOCTYPE svg PUBLIC "-//W3C//DTD SVG 1.1//EN" "http://www.w3.org/Graphics/SVG/1.1/DTD/svg11.dtd">
<!-- Creator: CorelDRAW 2018 (64-Bit) -->
<svg xmlns="http://www.w3.org/2000/svg" xml:space="preserve" width="5.81999in" height="2.51999in" version="1.1" style="shape-rendering:geometricPrecision; text-rendering:geometricPrecision; image-rendering:optimizeQuality; fill-rule:evenodd; clip-rule:evenodd"
viewBox="0 0 5819.99 2519.99"
 xmlns:xlink="http://www.w3.org/1999/xlink">
 <defs>
  <style type="text/css">
   <![CDATA[
    .fil0 {fill:#00697A}
    .fil1 {fill:#FA9E0D}
   ]]>
  </style>
 </defs>
 <g id="Layer_x0020_1">
  <metadata id="CorelCorpID_0Corel-Layer"/>
  <g id="_2566017666512">
   <path class="fil0" d="M1063.22 0.67c-2.96,0 -5.91,0.09 -8.87,0.11 -2.96,-0.02 -5.91,-0.11 -8.87,-0.11 -635.1,0 -1045.43,444.16 -1045.43,1079.25 0,827.06 1053.15,1438.74 1054.3,1439.41 1.15,-0.67 1054.3,-612.35 1054.3,-1439.41 0,-635.1 -410.33,-1079.25 -1045.43,-1079.25zm109.04 967.93l-222.2 125.91 0 49.14 222.2 -125.88 0 -49.17zm702.66 118.67c0,453.19 -367.39,820.57 -820.57,820.57 -453.19,0 -820.57,-367.39 -820.57,-820.57 0,-453.18 367.38,-820.56 820.57,-820.56 453.19,0 820.57,367.38 820.57,820.56zm-816.01 -554.72c68.37,0 123.8,56.14 123.8,125.39 0,69.25 -55.43,125.39 -123.8,125.39 -68.37,0 -123.8,-56.14 -123.8,-125.39 0,-69.25 55.43,-125.39 123.8,-125.39zm-63.69 313.71l131.73 0c24.88,0 45.24,20.35 45.24,45.24l0 77.08 154.96 -86.98 0 47.92 -154.96 88.37 0 579.89c0,24.88 -20.36,45.24 -45.24,45.24l-131.73 0c-24.88,0 -45.24,-20.35 -45.24,-45.24l0 -454.24 -172.65 98.45 0 -50.39 172.65 -96.91 0 -203.2c0,-24.88 20.35,-45.24 45.24,-45.24l0 0.01zm66.76 -668.77c-2.55,0 -5.08,0.07 -7.63,0.09 -2.55,-0.02 -5.08,-0.09 -7.63,-0.09 -545.92,0 -898.64,381.8 -898.64,927.72 0,710.93 905.28,1236.72 906.27,1237.3 0.99,-0.57 906.27,-526.37 906.27,-1237.3 0,-545.92 -352.72,-927.72 -898.64,-927.72z"/>
   <path class="fil1" d="M5411.37 1350.11l0.36 830.2c-1.68,98.42 -71.45,132.41 -162.51,143.85l-0.12 -830.41c9.26,-121.24 87.78,-125.94 162.26,-143.65l0.01 0.01zm-3077.05 811.09c11.99,83.17 38.99,159.18 143.59,161.93l51.86 0.13c1.69,0.31 3.38,0.62 5.09,0.92l550.18 -1.1c109.79,-8.29 133.51,-75.74 141.09,-160.69 12.47,-139.72 -27.98,-162.91 74.99,-164.06l168.48 0.52 354.07 0.26 135.57 -0.19c116.65,1.42 189.67,-65.33 201.37,-174.69l-0.12 -311.59c-168.59,34.3 -163.52,70.46 -163.3,260.01 0.32,65.19 -0.15,65.73 -70.44,65.55l-160.2 -0.17c-67.47,0.44 -69.36,0.64 -69.51,-69.5l0.24 -258.26c-192.19,19.87 -162.56,192.65 -161.87,260.85 0.7,68.2 -0.64,67.74 -75.93,67.01l-164.78 0.1c-65.46,-0.41 -67.94,-0.29 -68.01,-67.13l0.59 -259.12c-86.93,10.19 -162.3,49.58 -162.28,144.36l-5.13 365.7c2.87,73.98 -22.62,126.46 -101.89,137.25l-371.32 -0.52c-60.3,0.35 -92.42,-16.92 -97.94,-90.29l3.15 -409.76c-1.42,-104.19 -72.62,-133.2 -163.29,-148.48l0.32 597.09c0.01,18.63 1.74,36.72 5.39,53.87l0.03 -0.01zm1605.33 139.15c59.58,0 107.89,48.31 107.89,107.89 0,59.59 -48.31,107.9 -107.89,107.9 -59.59,0 -107.9,-48.31 -107.9,-107.9 0,-59.58 48.31,-107.89 107.9,-107.89zm113.17 -191.05c59.58,0 107.89,48.3 107.89,107.89 0,59.59 -48.31,107.89 -107.89,107.89 -59.58,0 -107.89,-48.3 -107.89,-107.89 0,-59.58 48.3,-107.89 107.89,-107.89zm-472.1 0c59.58,0 107.89,48.3 107.89,107.89 0,59.59 -48.31,107.89 -107.89,107.89 -59.59,0 -107.89,-48.3 -107.89,-107.89 0,-59.58 48.31,-107.89 107.89,-107.89zm251.16 0c59.59,0 107.89,48.3 107.89,107.89 0,59.59 -48.3,107.89 -107.89,107.89 -59.58,0 -107.89,-48.3 -107.89,-107.89 0,-59.58 48.3,-107.89 107.89,-107.89zm-474.46 0c59.58,0 107.89,48.3 107.89,107.89 0,59.59 -48.31,107.89 -107.89,107.89 -59.59,0 -107.89,-48.3 -107.89,-107.89 0,-59.58 48.3,-107.89 107.89,-107.89zm-574.06 -600.28c59.58,0 107.89,48.3 107.89,107.88 0,59.59 -48.3,107.9 -107.89,107.9 -59.59,0 -107.89,-48.3 -107.89,-107.9 0,-59.58 48.3,-107.88 107.89,-107.88zm1962.19 3.17l238.87 -0.25c91.63,-2.6 140.37,87 142.15,162.45l-342.85 1.15c-58.69,-2.63 -89.3,74 3.6,91.9 460.48,9.45 487.22,506.9 170.62,557.29l-510.97 -2.63c-154.49,-8.95 -197.37,-97.27 -205.8,-200.96l-1.27 -451.26c83.31,11.97 159.51,38.91 162.28,143.65l0.78 226.65c0.81,31.53 -9.74,115.84 76.31,120.19l416.42 1.33c147.65,-0.38 132.02,-238.04 -26.8,-239.96 -484.04,-21.5 -274.68,-400.07 -123.33,-409.55l-0.01 0zm257.98 -243.11l672.56 0.37c98.42,-1.69 132.42,-71.46 143.86,-162.51l-672.77 -0.12c-121.24,9.27 -125.94,87.78 -143.65,162.26l0 0z"/>
   <g id="_2553908337056">
    <path class="fil0" d="M3117.31 227.78c249.47,0 451.71,202.24 451.71,451.7 0,249.47 -202.24,451.71 -451.71,451.71 -84.58,0 -163.72,-23.27 -231.4,-63.72l0 369.7c0,15.44 -12.64,28.08 -28.08,28.08l-163.75 0c-15.44,0 -28.08,-12.63 -28.08,-28.08l0 -738.63 0.03 0c-0.26,-6.32 -0.43,-12.67 -0.43,-19.06 0,-249.47 202.24,-451.7 451.7,-451.7l0.01 0zm1.42 214.1c130.89,0 237,106.11 237,237 0,130.89 -106.11,237 -237,237 -130.89,0 -237,-106.11 -237,-237 0,-130.89 106.11,-237 237,-237z"/>
    <path class="fil0" d="M2358.55 380.83l163.75 0c15.51,0 28.09,12.57 28.09,28.08l-0.01 710.55c0.01,15.5 -12.57,28.08 -28.07,28.08l-163.76 0c-15.5,0 -28.07,-12.57 -28.07,-28.08l-0.01 -710.55c0.01,-15.5 12.59,-28.08 28.09,-28.08z"/>
    <path class="fil0" d="M3721.09 379.35l163.75 0c15.5,0 28.08,12.57 28.08,28.08l0 710.55c-0,15.5 -12.58,28.08 -28.08,28.08l-163.75 0c-15.5,0 -28.08,-12.57 -28.08,-28.08l-0 -710.55c0,-15.5 12.58,-28.08 28.08,-28.08z"/>
    <path class="fil0" d="M4484.96 273.83c201.81,0 367.12,156.25 381.57,354.37l0.47 7.4c0.37,6.9 0.57,13.85 0.57,20.84 0,6.99 -0.2,13.94 -0.57,20.84l0 446.63c0,15.44 -12.64,28.08 -28.08,28.08l-163.75 0c-15.44,0 -28.08,-12.63 -28.08,-28.08l0 -120.84 -0.37 0.17 0 -338.71c0.12,-2.56 0.19,-5.13 0.19,-7.72 0,-2.59 -0.07,-5.16 -0.19,-7.72 0,-83.96 -78.91,-153.86 -161.4,-153.86 -83.69,0 -152.52,63.63 -160.76,145.14l-0.19 2.41 -1.11 360.5 -0.26 -0.12 0 114.81c0,15.44 -12.64,28.08 -28.08,28.08l-163.75 0c-15.44,0 -28.08,-12.63 -28.08,-28.08l0 -437.83c-0.48,-7.84 -0.75,-15.74 -0.75,-23.7 0,-211.31 171.3,-382.61 382.61,-382.61l0.01 -0z"/>
    <circle class="fil0" cx="2433" cy="153.04" r="151.56"/>
    <circle class="fil0" cx="3794.05" cy="158.98" r="151.56"/>
    <rect class="fil1" x="2328.24" y="1206.52" width="289" height="62.41"/>
    <rect class="fil1" x="2956.02" y="1212.45" width="1910.82" height="59.43"/>
   </g>
  </g>
 </g>
</svg>
