<?xml version="1.0" encoding="utf-8"?>
<!-- Generator: Adobe Illustrator 21.0.0, SVG Export Plug-In . SVG Version: 6.00 Build 0)  -->
<svg xmlns:xlink="http://www.w3.org/1999/xlink" version="1.1" id="Layer_1" xmlns="http://www.w3.org/2000/svg" x="0px" y="0px"
	 viewBox="0 0 80 80" style="enable-background:new 0 0 80 80;" xml:space="preserve">
<style type="text/css">
	.st0{fill:#FFFFFF;stroke:#000000;stroke-width:2;stroke-miterlimit:10;}
	.st1{fill:#0FA600;}
	.st2{fill:#F40102;}
</style>
<path class="st0" d="M19.5,16.1L33,7.3v8.7c0,0,8.4-6.3,18-5.4c0,0,19.1,1.6,21.6,18.1v45.7H47.2v-5.9c0,0-7.4,7.1-18,5.9
	c0,0-18.1-0.7-21.6-17L7,7.3L19.5,16.1z"/>
<path class="st1" d="M28.8,41.1V14.7l-9.7,6l-7.9-6v40.6c0,0,1.9,14.4,18.7,15.1c0,0,14.4,0.6,18.4-14V41.4l10.2-0.2L47.9,30.3
	L37.4,41.1l9.7,0.3L32,57.2l-16-16L28.8,41.1z"/>
<path class="st2" d="M50.7,43.1v26.3l9.7-6l7.9,6V28.8c0,0-1.9-14.4-18.7-15.1c0,0-14.4-0.6-18.4,14v15.1L21,43l10.6,10.9l10.5-10.8
	l-9.7-0.3l15.1-15.9l16,16L50.7,43.1z"/>
</svg>
