<?xml version="1.0" encoding="utf-8"?>
<!-- Generator: Adobe Illustrator 21.0.0, SVG Export Plug-In . SVG Version: 6.00 Build 0)  -->
<svg xmlns:xlink="http://www.w3.org/1999/xlink" version="1.1" id="Layer_1" xmlns="http://www.w3.org/2000/svg" x="0px" y="0px"
	 viewBox="0 0 80 80" style="enable-background:new 0 0 80 80;" xml:space="preserve">
<style type="text/css">
	.st0{fill:#183F1B;}
</style>
<path class="st0" d="M61.8,16.8h16.5l-4.9,21.4c0,0-3.3,26.7-29.5,33.9c0,0,5.1-1.8,8.4-14C52.3,58.1,60.3,21.4,61.8,16.8z"/>
<path class="st0" d="M53.3,19.4c-5.1,1-9.5,5.4-9.5,5.4c12.9,34.1-12,48.5-12,48.5c-23.5-37.5,21-55.3,21.1-55.3
	c-2.2-8.3-5.5-13.6-5.5-13.6c-45.7,32.6-15.8,71-15.8,71C56.7,56.7,56.9,34.1,53.3,19.4z"/>
<path class="st0" d="M9.1,16.8h17l-7.4,34c0,0-5.7,17.8-1.1,21.3c0,0-19.3-4.6-13.2-30.7L9.1,16.8z"/>
</svg>
