<?xml version="1.0" encoding="utf-8"?>
<!-- Generator: Adobe Illustrator 21.0.0, SVG Export Plug-In . SVG Version: 6.00 Build 0)  -->
<svg xmlns:xlink="http://www.w3.org/1999/xlink" version="1.1" id="Layer_1" xmlns="http://www.w3.org/2000/svg" x="0px" y="0px"
	 viewBox="0 0 80 80" style="enable-background:new 0 0 80 80;" xml:space="preserve">
<style type="text/css">
	.st0{fill:none;stroke:#292F93;stroke-width:1.5;stroke-miterlimit:10;}
	.st1{fill:#292F93;}
	.st2{fill:#FFFFFF;}
</style>
<polygon class="st0" points="14.5,65.9 29.4,65.9 40.1,76.6 50.8,65.9 65.9,65.9 65.9,51 76.6,40.7 65.9,29.8 65.9,14.3 51.8,14.3 
	41,3.4 29.8,14.5 14.5,14.5 14.5,30 3.4,40 14.1,51.2 "/>
<g>
	<polygon class="st1" points="32.6,15.8 40.4,26.1 47.7,15.8 44.2,12.2 40.2,19.9 36.2,12.2 	"/>
	<circle class="st1" cx="40.2" cy="11.4" r="2.5"/>
</g>
<g>
	<polygon class="st1" points="64.9,32.5 54.7,40.2 64.9,47.5 68.6,44 60.8,40 68.6,36.1 	"/>
	<circle class="st1" cx="69.4" cy="40" r="2.5"/>
</g>
<g>
	<polygon class="st1" points="47.8,64.9 40.1,54.6 32.7,64.9 36.3,68.5 40.3,60.8 44.2,68.5 	"/>
	<circle class="st1" cx="40.3" cy="69.3" r="2.5"/>
</g>
<g>
	<polygon class="st1" points="17.4,28.2 30.1,30 28,17.5 23,17.4 25.6,25.8 17.3,23.1 	"/>
	<ellipse transform="matrix(0.706 -0.7083 0.7083 0.706 -8.2176 19.6597)" class="st1" cx="19.6" cy="19.7" rx="2.5" ry="2.5"/>
</g>
<g>
	<polygon class="st1" points="15.7,47.7 26,40 15.7,32.6 12.1,36.2 19.8,40.2 12.1,44.1 	"/>
	<circle class="st1" cx="11.3" cy="40.2" r="2.5"/>
</g>
<g>
	<polygon class="st1" points="27.9,63.2 29.9,50.5 17.4,52.4 17.3,57.5 25.6,54.9 22.8,63.2 	"/>
	<ellipse transform="matrix(0.7164 -0.6976 0.6976 0.7164 -36.957 30.8565)" class="st1" cx="19.5" cy="60.9" rx="2.5" ry="2.5"/>
</g>
<g>
	<polygon class="st1" points="63.2,52.5 50.5,50.7 52.6,63.1 57.6,63.2 55,54.9 63.3,57.6 	"/>
	<ellipse transform="matrix(0.7063 -0.7079 0.7079 0.7063 -25.218 61.1074)" class="st1" cx="61" cy="60.9" rx="2.5" ry="2.5"/>
</g>
<polygon class="st1" points="52.6,17.2 50.3,29.8 62.9,28.2 63.1,23.1 54.7,25.5 57.7,17.3 "/>
<ellipse transform="matrix(0.7324 -0.6809 0.6809 0.7324 2.9326 46.7835)" class="st1" cx="61" cy="19.7" rx="2.5" ry="2.5"/>
<circle class="st1" cx="40.2" cy="40.4" r="14.1"/>
<path class="st2" d="M40.2,27.7c0,0-11.7,0.6-12.7,12.5c0,0-0.3,11.4,12.8,13c0,0,8.3,0,10.8-7.1h-4.3c0,0-2.7,3.9-8.3,2.7
	c0,0-5.2-1.2-6.4-6.3h20.5C52.7,42.5,54.2,28.8,40.2,27.7z M32,38.2c1.7-7.2,8.3-6.7,8.3-6.7c7.1,0.3,8.2,6.7,8.2,6.7H32z"/>
</svg>
