<svg id="svg" version="1.1" width="400" height="448" viewBox="0 0 400 448" xmlns="http://www.w3.org/2000/svg" xmlns:xlink="http://www.w3.org/1999/xlink" ><g id="svgg"><path id="path0" d="" stroke="none" fill="#555555" fill-rule="evenodd"></path><path id="path1" d="M142.637 52.967 C 129.961 58.305,130.968 75.676,144.171 79.425 C 155.629 82.678,165.945 70.889,161.031 60.156 C 157.968 53.464,149.404 50.117,142.637 52.967 M250.637 52.967 C 238.110 58.243,238.824 75.242,251.741 79.252 C 263.424 82.879,273.996 71.189,269.016 60.152 C 266.005 53.480,257.404 50.117,250.637 52.967 " stroke="none" fill="#ffffff" fill-rule="evenodd"></path><path id="path2" d="M81.229 1.054 C 79.825 2.839,80.294 3.947,87.454 15.732 C 88.634 17.675,89.600 19.344,89.600 19.441 C 89.600 19.539,90.455 21.065,91.500 22.834 C 92.545 24.602,93.770 26.713,94.222 27.524 C 94.675 28.336,97.160 32.662,99.745 37.138 L 104.446 45.275 101.707 48.338 C 100.201 50.022,98.256 52.300,97.384 53.400 C 96.513 54.500,95.694 55.490,95.565 55.600 C 94.895 56.171,90.645 62.255,88.719 65.400 C 79.632 80.240,75.024 94.646,73.782 112.100 L 73.505 116.000 199.988 116.000 L 326.472 116.000 326.218 112.500 C 324.632 90.595,317.161 71.220,304.104 55.152 C 302.094 52.679,300.764 51.122,298.281 48.336 L 295.551 45.272 298.521 40.136 C 300.155 37.311,301.947 34.190,302.503 33.200 C 303.059 32.210,305.085 28.700,307.005 25.400 C 320.729 1.810,320.211 2.884,318.771 1.054 C 316.714 -1.562,314.764 -0.486,311.621 5.000 C 310.487 6.980,309.396 8.870,309.198 9.200 C 309.000 9.530,307.225 12.590,305.255 16.000 C 303.284 19.410,300.396 24.401,298.836 27.092 C 297.276 29.783,296.000 32.153,296.000 32.359 C 296.000 32.565,295.855 32.793,295.677 32.867 C 295.499 32.940,294.390 34.710,293.211 36.800 C 292.033 38.890,291.024 40.659,290.970 40.731 C 290.916 40.803,288.831 39.208,286.336 37.186 C 268.323 22.594,246.267 12.975,221.600 8.954 C 216.198 8.074,189.581 7.687,183.400 8.400 C 157.431 11.393,132.786 21.567,113.648 37.196 C 111.170 39.220,109.094 40.814,109.035 40.738 C 108.975 40.662,107.848 38.710,106.529 36.400 C 101.427 27.460,97.861 21.356,97.146 20.338 C 96.736 19.754,96.400 19.169,96.400 19.037 C 96.400 18.905,94.490 15.513,92.155 11.498 C 89.821 7.484,87.552 3.570,87.115 2.800 C 85.322 -0.353,82.901 -1.071,81.229 1.054 M154.011 53.037 C 161.253 56.287,164.511 65.226,160.989 72.187 C 155.442 83.150,138.703 82.340,134.390 70.899 C 129.948 59.116,142.366 47.811,154.011 53.037 M262.246 53.193 C 269.447 56.738,272.481 65.285,268.989 72.187 C 263.442 83.150,246.703 82.340,242.390 70.899 C 237.900 58.989,250.748 47.532,262.246 53.193 M72.800 222.127 C 72.800 286.429,72.934 317.412,73.220 319.027 C 76.058 335.049,89.309 347.136,105.279 348.270 L 108.800 348.520 108.806 385.960 C 108.812 421.729,108.847 423.538,109.591 426.491 C 116.675 454.600,155.542 455.386,164.063 427.593 L 164.981 424.600 165.104 386.500 L 165.227 348.400 200.000 348.400 L 234.773 348.400 234.897 386.500 C 235.036 429.480,234.797 426.151,238.246 433.158 C 248.134 453.253,280.003 452.516,288.548 431.996 C 288.959 431.008,289.452 429.840,289.644 429.400 C 291.131 425.983,291.188 424.392,291.194 385.960 L 291.200 348.520 294.721 348.270 C 310.283 347.165,323.187 335.747,326.667 320.000 C 326.838 319.230,327.029 275.625,327.092 223.100 L 327.207 127.600 200.003 127.600 L 72.800 127.600 72.800 222.127 M20.892 144.806 C 11.943 147.151,4.872 153.681,1.328 162.873 L 0.200 165.800 0.200 231.400 C 0.200 267.480,0.338 297.590,0.508 298.311 C 7.175 326.724,47.998 327.158,55.227 298.893 C 56.297 294.711,56.437 170.113,55.377 165.600 C 51.816 150.438,35.938 140.864,20.892 144.806 M364.886 144.807 C 355.191 147.348,347.276 155.317,344.789 165.044 C 343.708 169.272,343.549 293.819,344.619 298.400 C 351.301 327.005,392.775 326.938,399.492 298.311 C 399.662 297.590,399.800 267.480,399.800 231.400 L 399.800 165.800 398.672 162.873 C 393.226 148.748,378.961 141.120,364.886 144.807 " stroke="none" fill="#a4c639" fill-rule="evenodd"></path><path id="path3" d="" stroke="none" fill="#55ff00" fill-rule="evenodd"></path><path id="path4" d="M146.900 51.887 C 147.505 51.978,148.495 51.978,149.100 51.887 C 149.705 51.795,149.210 51.720,148.000 51.720 C 146.790 51.720,146.295 51.795,146.900 51.887 M254.900 51.887 C 255.505 51.978,256.495 51.978,257.100 51.887 C 257.705 51.795,257.210 51.720,256.000 51.720 C 254.790 51.720,254.295 51.795,254.900 51.887 " stroke="none" fill="#d8e7ab" fill-rule="evenodd"></path></g></svg>