<?xml version="1.0" encoding="UTF-8"?>
<!DOCTYPE svg  PUBLIC '-//W3C//DTD SVG 1.1//EN'  'http://www.w3.org/Graphics/SVG/1.1/DTD/svg11.dtd'>
<svg width="512px" height="512px" enable-background="new 0 0 33.834 33.834" version="1.1" viewBox="0 0 33.834 33.834" xml:space="preserve" xmlns="http://www.w3.org/2000/svg">
	<path d="m32.253 29.334v4.5h-30.672v-4.501c0-2.125 1.832-4.741 4.07-5.804l4.98-2.366 3.457 7.204 1.77-4.799c0.349 0.066 0.695 0.154 1.059 0.154s0.709-0.088 1.059-0.154l1.68 4.563 3.389-7.048 5.141 2.445c2.235 1.063 4.067 3.679 4.067 5.806zm-26.148-15.772v-3.25c0-0.551 0.287-1.034 0.72-1.312 0.581-5.058 4.883-9 10.094-9s9.514 3.942 10.096 9c0.432 0.278 0.719 0.761 0.719 1.312v3.25c0 0.863-0.699 1.563-1.563 1.563s-1.563-0.7-1.563-1.563v-0.683c-0.846 4.255-3.961 8.205-7.688 8.205s-6.842-3.95-7.688-8.205v0.683c0 0.7-0.465 1.286-1.1 1.485 0.622 2.117 2.002 3.946 3.908 5.146 0.352-0.116 0.796-0.094 1.227 0.13 0.692 0.36 1.045 1.06 0.783 1.56-0.261 0.5-1.033 0.612-1.729 0.251-0.508-0.265-0.83-0.71-0.864-1.126-2.183-1.396-3.731-3.533-4.37-5.998-0.574-0.23-0.982-0.79-0.982-1.448zm1.785-4.927c0.047 3e-3 0.092 4e-3 0.137 0.021 0.113 0.042 0.195 0.123 0.252 0.218 0.339 0.144 0.609 0.407 0.775 0.733 0.461-4.321 3.801-6.607 7.863-6.607s7.402 2.286 7.863 6.607c0.229-0.449 0.664-0.77 1.185-0.837-0.676-4.393-4.47-7.771-9.048-7.771-4.531 1e-3 -8.295 3.31-9.027 7.636z" fill="#00677f"/>
</svg>